<mxfile host="app.diagrams.net" modified="2021-11-01T16:41:55.993Z" agent="5.0 (Windows NT 10.0; Win64; x64) AppleWebKit/537.36 (KHTML, like Gecko) Chrome/95.0.4638.54 Safari/537.36" etag="rQWYIiuIjCe-qYD_VoPS" version="15.3.5" type="github">
  <diagram name="Page-1" id="9f46799a-70d6-7492-0946-bef42562c5a5">
    <mxGraphModel dx="1483" dy="1549" grid="0" gridSize="10" guides="1" tooltips="1" connect="1" arrows="1" fold="1" page="1" pageScale="1" pageWidth="1100" pageHeight="850" background="#FFFFFF" math="0" shadow="0">
      <root>
        <mxCell id="0" />
        <mxCell id="1" parent="0" />
        <mxCell id="Uxr_HARES1vF5yUQczm2-6" style="edgeStyle=orthogonalEdgeStyle;rounded=1;sketch=0;jumpStyle=arc;jumpSize=6;orthogonalLoop=1;jettySize=auto;html=1;shadow=0;fontSize=18;fontColor=#FFFFFF;startArrow=classic;startFill=1;strokeWidth=3;entryX=1;entryY=0.5;entryDx=0;entryDy=0;strokeColor=#FFFFFF;endArrow=none;endFill=0;" parent="1" edge="1">
          <mxGeometry relative="1" as="geometry">
            <mxPoint x="659.49" y="994.36" as="targetPoint" />
            <mxPoint x="934.52" y="994.36" as="sourcePoint" />
          </mxGeometry>
        </mxCell>
        <mxCell id="Uxr_HARES1vF5yUQczm2-18" value="" style="endArrow=classic;html=1;shadow=0;fontColor=#000000;strokeColor=#FFFFFF;strokeWidth=3;fillColor=default;gradientColor=none;entryX=0.5;entryY=0;entryDx=0;entryDy=0;entryPerimeter=0;" parent="1" edge="1">
          <mxGeometry width="50" height="50" relative="1" as="geometry">
            <mxPoint x="469.81" y="2190" as="sourcePoint" />
            <mxPoint x="470.1850000000001" y="2240" as="targetPoint" />
          </mxGeometry>
        </mxCell>
        <mxCell id="Uxr_HARES1vF5yUQczm2-17" value="" style="endArrow=classic;html=1;shadow=0;fontColor=#000000;strokeColor=#FFFFFF;strokeWidth=3;fillColor=default;gradientColor=none;entryX=0.5;entryY=0;entryDx=0;entryDy=0;entryPerimeter=0;" parent="1" target="5bEnz7MpU0Ya5RY6O6NQ-4" edge="1">
          <mxGeometry width="50" height="50" relative="1" as="geometry">
            <mxPoint x="611" y="2190" as="sourcePoint" />
            <mxPoint x="610" y="2190" as="targetPoint" />
          </mxGeometry>
        </mxCell>
        <mxCell id="Uxr_HARES1vF5yUQczm2-12" value="" style="endArrow=none;html=1;shadow=0;fontColor=#000000;strokeColor=#FFFFFF;strokeWidth=3;fillColor=default;gradientColor=none;" parent="1" edge="1">
          <mxGeometry width="50" height="50" relative="1" as="geometry">
            <mxPoint x="884.52" y="1614.83" as="sourcePoint" />
            <mxPoint x="934.52" y="1614.83" as="targetPoint" />
          </mxGeometry>
        </mxCell>
        <mxCell id="Uxr_HARES1vF5yUQczm2-14" value="" style="endArrow=none;html=1;shadow=0;fontColor=#000000;strokeColor=#FFFFFF;strokeWidth=3;fillColor=default;gradientColor=none;" parent="1" edge="1">
          <mxGeometry width="50" height="50" relative="1" as="geometry">
            <mxPoint x="884.52" y="1753.83" as="sourcePoint" />
            <mxPoint x="934.5199999999998" y="1753.83" as="targetPoint" />
          </mxGeometry>
        </mxCell>
        <mxCell id="Uxr_HARES1vF5yUQczm2-15" value="" style="endArrow=none;html=1;shadow=0;fontColor=#000000;strokeColor=#FFFFFF;strokeWidth=3;fillColor=default;gradientColor=none;" parent="1" edge="1">
          <mxGeometry width="50" height="50" relative="1" as="geometry">
            <mxPoint x="883" y="1895" as="sourcePoint" />
            <mxPoint x="932.9999999999998" y="1895" as="targetPoint" />
          </mxGeometry>
        </mxCell>
        <mxCell id="Uxr_HARES1vF5yUQczm2-13" value="" style="endArrow=none;html=1;shadow=0;fontColor=#000000;strokeColor=#FFFFFF;strokeWidth=3;fillColor=default;gradientColor=none;" parent="1" edge="1">
          <mxGeometry width="50" height="50" relative="1" as="geometry">
            <mxPoint x="894.49" y="1497" as="sourcePoint" />
            <mxPoint x="1067" y="1497" as="targetPoint" />
          </mxGeometry>
        </mxCell>
        <mxCell id="Uxr_HARES1vF5yUQczm2-8" style="edgeStyle=orthogonalEdgeStyle;rounded=1;sketch=0;orthogonalLoop=1;jettySize=auto;html=1;fontSize=30;strokeWidth=3;shadow=0;strokeColor=#FFFFFF;entryX=1.018;entryY=0.495;entryDx=0;entryDy=0;entryPerimeter=0;" parent="1" edge="1">
          <mxGeometry relative="1" as="geometry">
            <mxPoint x="1033.5205" y="993.8499999999999" as="targetPoint" />
            <Array as="points">
              <mxPoint x="1073" y="1498" />
              <mxPoint x="1073" y="994" />
            </Array>
            <mxPoint x="665" y="1497.7557142857145" as="sourcePoint" />
          </mxGeometry>
        </mxCell>
        <mxCell id="Uxr_HARES1vF5yUQczm2-7" style="edgeStyle=orthogonalEdgeStyle;rounded=1;sketch=0;jumpStyle=arc;jumpSize=6;orthogonalLoop=1;jettySize=auto;html=1;shadow=0;fontSize=18;fontColor=#FFFFFF;startArrow=none;startFill=0;strokeWidth=3;entryX=1;entryY=0.5;entryDx=0;entryDy=0;strokeColor=#FFFFFF;" parent="1" edge="1">
          <mxGeometry relative="1" as="geometry">
            <mxPoint x="659.49" y="1244.71" as="targetPoint" />
            <mxPoint x="934.52" y="1244.71" as="sourcePoint" />
          </mxGeometry>
        </mxCell>
        <mxCell id="Uxr_HARES1vF5yUQczm2-5" style="edgeStyle=orthogonalEdgeStyle;rounded=0;orthogonalLoop=1;jettySize=auto;html=1;entryX=0.5;entryY=0;entryDx=0;entryDy=0;strokeWidth=3;shadow=0;exitX=0.5;exitY=1;exitDx=0;exitDy=0;strokeColor=#FFFFFF;" parent="1" edge="1">
          <mxGeometry relative="1" as="geometry">
            <mxPoint x="544.75" y="585" as="sourcePoint" />
            <mxPoint x="544.75" y="620" as="targetPoint" />
          </mxGeometry>
        </mxCell>
        <mxCell id="Uxr_HARES1vF5yUQczm2-4" style="edgeStyle=orthogonalEdgeStyle;rounded=0;orthogonalLoop=1;jettySize=auto;html=1;strokeWidth=3;shadow=0;entryX=0.5;entryY=0;entryDx=0;entryDy=0;strokeColor=#FFFFFF;" parent="1" edge="1">
          <mxGeometry relative="1" as="geometry">
            <mxPoint x="544.87" y="330" as="targetPoint" />
            <mxPoint x="544.8800000000001" y="299.9950941544964" as="sourcePoint" />
            <Array as="points">
              <mxPoint x="544.88" y="310" />
              <mxPoint x="544.88" y="310" />
            </Array>
          </mxGeometry>
        </mxCell>
        <mxCell id="Uxr_HARES1vF5yUQczm2-3" style="edgeStyle=orthogonalEdgeStyle;rounded=0;orthogonalLoop=1;jettySize=auto;html=1;entryX=0.5;entryY=0;entryDx=0;entryDy=0;strokeWidth=3;shadow=0;sketch=0;backgroundOutline=1;comic=0;orthogonal=0;strokeColor=#FFFFFF;" parent="1" edge="1">
          <mxGeometry relative="1" as="geometry">
            <mxPoint x="544.85" y="15" as="sourcePoint" />
            <mxPoint x="544.855" y="40" as="targetPoint" />
          </mxGeometry>
        </mxCell>
        <mxCell id="TdoV821Zneaegla7UpCI-223" style="edgeStyle=orthogonalEdgeStyle;sketch=0;jumpStyle=arc;jumpSize=6;orthogonalLoop=1;jettySize=auto;html=1;entryX=1;entryY=0.5;entryDx=0;entryDy=0;shadow=0;fontSize=10;fontColor=#000000;startArrow=none;startFill=0;strokeWidth=3;strokeColor=#E6E6E6;labelBorderColor=#CC00CC;fillColor=default;endArrow=classic;endFill=1;curved=1;" parent="1" edge="1">
          <mxGeometry relative="1" as="geometry">
            <mxPoint x="935.52" y="170" as="sourcePoint" />
            <mxPoint x="678.5" y="170" as="targetPoint" />
            <Array as="points">
              <mxPoint x="821" y="170" />
              <mxPoint x="821" y="170" />
            </Array>
          </mxGeometry>
        </mxCell>
        <mxCell id="TdoV821Zneaegla7UpCI-6" style="edgeStyle=orthogonalEdgeStyle;rounded=0;orthogonalLoop=1;jettySize=auto;html=1;entryX=0.5;entryY=0;entryDx=0;entryDy=0;strokeWidth=2;shadow=0;sketch=0;backgroundOutline=1;comic=0;orthogonal=0;" parent="1" edge="1">
          <mxGeometry relative="1" as="geometry">
            <mxPoint x="545" y="14" as="sourcePoint" />
            <mxPoint x="545.005" y="39" as="targetPoint" />
          </mxGeometry>
        </mxCell>
        <mxCell id="TdoV821Zneaegla7UpCI-2" value="ExperimentDate.lif" style="swimlane;startSize=23;shadow=0;sketch=0;swimlaneFillColor=default;" parent="1" vertex="1">
          <mxGeometry x="430" y="-240" width="230" height="255" as="geometry" />
        </mxCell>
        <mxCell id="TdoV821Zneaegla7UpCI-110" value="" style="line;strokeWidth=7;fillColor=none;align=left;verticalAlign=middle;spacingTop=-1;spacingLeft=3;spacingRight=3;rotatable=0;labelPosition=right;points=[];portConstraint=eastwest;rounded=1;shadow=0;glass=0;fontSize=16;fontColor=#FFFFFF;html=1;sketch=0;opacity=30;perimeterSpacing=2;" parent="TdoV821Zneaegla7UpCI-2" vertex="1">
          <mxGeometry x="40" y="235" width="160" height="11" as="geometry" />
        </mxCell>
        <mxCell id="TdoV821Zneaegla7UpCI-111" value="" style="ellipse;whiteSpace=wrap;html=1;aspect=fixed;rounded=1;shadow=0;glass=0;fontSize=16;fontColor=#FFFFFF;strokeColor=#000000;strokeWidth=1;fillColor=#CCCCCC;gradientColor=none;gradientDirection=south;" parent="TdoV821Zneaegla7UpCI-2" vertex="1">
          <mxGeometry x="30.000000000000004" y="235" width="10" height="10" as="geometry" />
        </mxCell>
        <mxCell id="TdoV821Zneaegla7UpCI-147" value="" style="ellipse;whiteSpace=wrap;html=1;strokeWidth=2;fillWeight=2;hachureGap=8;fillStyle=dots;sketch=1;fontColor=#333333;shadow=0;fillColor=none;strokeColor=#333333;" parent="TdoV821Zneaegla7UpCI-2" vertex="1">
          <mxGeometry x="150" y="160" width="30" height="30" as="geometry" />
        </mxCell>
        <mxCell id="TdoV821Zneaegla7UpCI-148" value="" style="ellipse;whiteSpace=wrap;html=1;strokeWidth=2;fillWeight=2;hachureGap=8;fillStyle=solid;sketch=1;fontColor=#333333;shadow=0;fillColor=#CCCCCC;strokeColor=#CCCCCC;" parent="TdoV821Zneaegla7UpCI-2" vertex="1">
          <mxGeometry x="160.75" y="170" width="8.5" height="10" as="geometry" />
        </mxCell>
        <mxCell id="TdoV821Zneaegla7UpCI-149" value="" style="ellipse;whiteSpace=wrap;html=1;strokeWidth=0;fillWeight=2;hachureGap=8;fillStyle=zigzag;sketch=1;fontColor=#333333;shadow=0;fillColor=#FF0000;strokeColor=none;" parent="TdoV821Zneaegla7UpCI-2" vertex="1">
          <mxGeometry x="150" y="160" width="30" height="30" as="geometry" />
        </mxCell>
        <mxCell id="TdoV821Zneaegla7UpCI-112" value="&lt;font color=&quot;#000000&quot; style=&quot;font-size: 10px;&quot;&gt;T 0&lt;/font&gt;" style="text;html=1;strokeColor=none;fillColor=none;align=center;verticalAlign=middle;whiteSpace=wrap;rounded=0;shadow=0;glass=0;fontSize=10;fontColor=#FFFFFF;" parent="TdoV821Zneaegla7UpCI-2" vertex="1">
          <mxGeometry y="230" width="40" height="20" as="geometry" />
        </mxCell>
        <mxCell id="TdoV821Zneaegla7UpCI-113" value="&lt;font color=&quot;#000000&quot; style=&quot;font-size: 10px&quot;&gt;99&lt;/font&gt;" style="text;html=1;strokeColor=none;fillColor=none;align=center;verticalAlign=middle;whiteSpace=wrap;rounded=0;shadow=0;glass=0;fontSize=10;fontColor=#FFFFFF;" parent="TdoV821Zneaegla7UpCI-2" vertex="1">
          <mxGeometry x="190" y="230" width="40" height="20" as="geometry" />
        </mxCell>
        <mxCell id="TdoV821Zneaegla7UpCI-9" style="edgeStyle=orthogonalEdgeStyle;rounded=0;orthogonalLoop=1;jettySize=auto;html=1;strokeWidth=2;shadow=0;entryX=0.5;entryY=0;entryDx=0;entryDy=0;" parent="1" edge="1">
          <mxGeometry relative="1" as="geometry">
            <mxPoint x="544.99" y="329" as="targetPoint" />
            <mxPoint x="545.0000000000001" y="298.9950941544964" as="sourcePoint" />
          </mxGeometry>
        </mxCell>
        <mxCell id="TdoV821Zneaegla7UpCI-5" value="&lt;p style=&quot;line-height: 200% ; font-size: 17px&quot;&gt;&lt;font style=&quot;font-size: 17px&quot;&gt;&lt;br&gt;&lt;/font&gt;&lt;/p&gt;&lt;p style=&quot;line-height: 200% ; font-size: 17px&quot;&gt;&lt;font style=&quot;font-size: 17px&quot;&gt;&lt;b&gt;Psuedo-Flat-Field correction&lt;/b&gt;&lt;br&gt;using&lt;br&gt;ImageJ&lt;/font&gt;&lt;br&gt;&lt;/p&gt;" style="rhombus;whiteSpace=wrap;html=1;shadow=1;fillColor=#fff2cc;strokeColor=#994C00;verticalAlign=middle;horizontal=1;" parent="1" vertex="1">
          <mxGeometry x="412.51" y="40" width="264.99" height="260" as="geometry" />
        </mxCell>
        <mxCell id="TdoV821Zneaegla7UpCI-24" style="edgeStyle=orthogonalEdgeStyle;rounded=0;orthogonalLoop=1;jettySize=auto;html=1;entryX=0.5;entryY=0;entryDx=0;entryDy=0;strokeWidth=2;shadow=0;exitX=0.5;exitY=1;exitDx=0;exitDy=0;" parent="1" edge="1">
          <mxGeometry relative="1" as="geometry">
            <mxPoint x="544.99" y="584.0000000000002" as="sourcePoint" />
            <mxPoint x="544.9900000000001" y="619.0000000000002" as="targetPoint" />
          </mxGeometry>
        </mxCell>
        <mxCell id="TdoV821Zneaegla7UpCI-16" value="Icy Version 2.1.4.0" style="swimlane;startSize=40;horizontal=1;containerType=tree;shadow=1;sketch=0;fontSize=20;swimlaneFillColor=#ffffff;glass=1;rounded=1;perimeterSpacing=0;swimlaneLine=1;" parent="1" vertex="1">
          <mxGeometry x="192.49" y="620" width="705" height="1600" as="geometry">
            <mxRectangle x="192.49" y="950" width="170" height="20" as="alternateBounds" />
          </mxGeometry>
        </mxCell>
        <mxCell id="TdoV821Zneaegla7UpCI-28" style="edgeStyle=orthogonalEdgeStyle;rounded=0;orthogonalLoop=1;jettySize=auto;html=1;entryX=0.5;entryY=0;entryDx=0;entryDy=0;fontSize=17;strokeWidth=3;shadow=0;" parent="TdoV821Zneaegla7UpCI-16" source="TdoV821Zneaegla7UpCI-22" target="TdoV821Zneaegla7UpCI-27" edge="1">
          <mxGeometry relative="1" as="geometry" />
        </mxCell>
        <mxCell id="TdoV821Zneaegla7UpCI-29" value="&lt;font color=&quot;#000000&quot;&gt;TrackGroup information&lt;/font&gt;" style="edgeLabel;align=center;verticalAlign=middle;resizable=0;points=[];fontSize=17;fontColor=#FFFFFF;html=1;labelBorderColor=#000000;" parent="TdoV821Zneaegla7UpCI-28" vertex="1" connectable="0">
          <mxGeometry x="-0.2333" relative="1" as="geometry">
            <mxPoint as="offset" />
          </mxGeometry>
        </mxCell>
        <mxCell id="TdoV821Zneaegla7UpCI-22" value="&lt;p style=&quot;line-height: 200% ; font-size: 17px&quot;&gt;&lt;span&gt;&lt;b&gt;Active contours&lt;/b&gt;&lt;br&gt;&lt;/span&gt;&lt;span&gt;cell tracking plugin&lt;/span&gt;&lt;/p&gt;" style="rhombus;whiteSpace=wrap;html=1;shadow=1;fillColor=#fff2cc;strokeColor=#994C00;" parent="TdoV821Zneaegla7UpCI-16" vertex="1">
          <mxGeometry x="256.74" y="1039" width="192.48" height="190" as="geometry" />
        </mxCell>
        <mxCell id="TdoV821Zneaegla7UpCI-27" value="TrackManager" style="swimlane;rounded=1;shadow=1;glass=0;sketch=0;fontSize=17;strokeColor=#000000;fillColor=#F7A399;gradientColor=#ffffff;" parent="TdoV821Zneaegla7UpCI-16" vertex="1">
          <mxGeometry x="192.73999999999998" y="1299" width="320" height="280" as="geometry" />
        </mxCell>
        <mxCell id="TdoV821Zneaegla7UpCI-30" value="&lt;font color=&quot;#000000&quot;&gt;ROI statistics&lt;/font&gt;" style="swimlane;fontStyle=0;childLayout=stackLayout;horizontal=1;startSize=26;horizontalStack=0;resizeParent=1;resizeParentMax=0;resizeLast=0;collapsible=1;marginBottom=0;rounded=1;shadow=1;glass=0;sketch=1;fontSize=17;fontColor=#FFFFFF;strokeColor=#000000;fillColor=#F7A399;gradientColor=#ffffff;html=1;" parent="TdoV821Zneaegla7UpCI-27" vertex="1">
          <mxGeometry x="20" y="110" width="270" height="104" as="geometry" />
        </mxCell>
        <mxCell id="TdoV821Zneaegla7UpCI-31" value="Mean intensity (Channel 1)" style="text;strokeColor=none;fillColor=none;align=left;verticalAlign=top;spacingLeft=4;spacingRight=4;overflow=hidden;rotatable=0;points=[[0,0.5],[1,0.5]];portConstraint=eastwest;fontSize=14;" parent="TdoV821Zneaegla7UpCI-30" vertex="1">
          <mxGeometry y="26" width="270" height="26" as="geometry" />
        </mxCell>
        <mxCell id="TdoV821Zneaegla7UpCI-32" value="Sum intensity (Channel 1)" style="text;strokeColor=none;fillColor=none;align=left;verticalAlign=top;spacingLeft=4;spacingRight=4;overflow=hidden;rotatable=0;points=[[0,0.5],[1,0.5]];portConstraint=eastwest;fontSize=14;" parent="TdoV821Zneaegla7UpCI-30" vertex="1">
          <mxGeometry y="52" width="270" height="26" as="geometry" />
        </mxCell>
        <mxCell id="TdoV821Zneaegla7UpCI-33" value="Area (Scaled units area of ROI)" style="text;strokeColor=none;fillColor=none;align=left;verticalAlign=top;spacingLeft=4;spacingRight=4;overflow=hidden;rotatable=0;points=[[0,0.5],[1,0.5]];portConstraint=eastwest;fontSize=14;" parent="TdoV821Zneaegla7UpCI-30" vertex="1">
          <mxGeometry y="78" width="270" height="26" as="geometry" />
        </mxCell>
        <mxCell id="TdoV821Zneaegla7UpCI-277" value="&lt;p style=&quot;line-height: 200% ; font-size: 18px&quot;&gt;&lt;b&gt;Reverse order&lt;/b&gt;&lt;br&gt;of the Frame (T)&lt;/p&gt;" style="rhombus;whiteSpace=wrap;html=1;shadow=1;fillColor=#fff2cc;strokeColor=#994C00;" parent="TdoV821Zneaegla7UpCI-16" vertex="1">
          <mxGeometry x="256.74" y="50" width="192" height="177" as="geometry" />
        </mxCell>
        <mxCell id="TdoV821Zneaegla7UpCI-279" value="" style="ellipse;whiteSpace=wrap;html=1;strokeWidth=2;fillWeight=2;hachureGap=8;fillStyle=solid;sketch=1;fontColor=#333333;shadow=0;strokeColor=#808080;fillColor=#808080;" parent="TdoV821Zneaegla7UpCI-16" vertex="1">
          <mxGeometry x="257" y="287" width="38.5" height="35" as="geometry" />
        </mxCell>
        <mxCell id="TdoV821Zneaegla7UpCI-280" value="" style="ellipse;whiteSpace=wrap;html=1;strokeWidth=2;fillWeight=2;hachureGap=8;fillStyle=dots;sketch=1;fontColor=#333333;shadow=0;fillColor=none;strokeColor=#333333;" parent="TdoV821Zneaegla7UpCI-16" vertex="1">
          <mxGeometry x="261.25" y="289.5" width="30" height="30" as="geometry" />
        </mxCell>
        <mxCell id="TdoV821Zneaegla7UpCI-281" value="" style="ellipse;whiteSpace=wrap;html=1;strokeWidth=0;fillWeight=2;hachureGap=8;fillStyle=zigzag;sketch=1;fontColor=#333333;shadow=0;fillColor=#FF0000;strokeColor=none;" parent="TdoV821Zneaegla7UpCI-16" vertex="1">
          <mxGeometry x="261.25" y="287" width="30" height="30" as="geometry" />
        </mxCell>
        <mxCell id="TdoV821Zneaegla7UpCI-282" value="" style="ellipse;whiteSpace=wrap;html=1;strokeWidth=2;fillWeight=2;hachureGap=8;fillStyle=solid;sketch=1;fontColor=#333333;shadow=0;strokeColor=#808080;fillColor=#808080;" parent="TdoV821Zneaegla7UpCI-16" vertex="1">
          <mxGeometry x="377" y="387" width="38.5" height="35" as="geometry" />
        </mxCell>
        <mxCell id="TdoV821Zneaegla7UpCI-283" value="" style="ellipse;whiteSpace=wrap;html=1;strokeWidth=2;fillWeight=2;hachureGap=8;fillStyle=dots;sketch=1;fontColor=#333333;shadow=0;fillColor=none;strokeColor=#333333;" parent="TdoV821Zneaegla7UpCI-16" vertex="1">
          <mxGeometry x="381.25" y="389.5" width="30" height="30" as="geometry" />
        </mxCell>
        <mxCell id="TdoV821Zneaegla7UpCI-284" value="" style="ellipse;whiteSpace=wrap;html=1;strokeWidth=0;fillWeight=2;hachureGap=8;fillStyle=zigzag;sketch=1;fontColor=#333333;shadow=0;fillColor=#FF0000;strokeColor=none;" parent="TdoV821Zneaegla7UpCI-16" vertex="1">
          <mxGeometry x="381.25" y="387" width="30" height="30" as="geometry" />
        </mxCell>
        <mxCell id="TdoV821Zneaegla7UpCI-285" value="" style="ellipse;whiteSpace=wrap;html=1;strokeWidth=2;fillWeight=2;hachureGap=8;fillStyle=solid;sketch=1;fontColor=#333333;shadow=0;strokeColor=#808080;fillColor=#808080;" parent="TdoV821Zneaegla7UpCI-16" vertex="1">
          <mxGeometry x="338" y="297" width="38.5" height="35" as="geometry" />
        </mxCell>
        <mxCell id="TdoV821Zneaegla7UpCI-286" value="" style="ellipse;whiteSpace=wrap;html=1;strokeWidth=2;fillWeight=2;hachureGap=8;fillStyle=dots;sketch=1;fontColor=#333333;shadow=0;fillColor=none;strokeColor=#333333;" parent="TdoV821Zneaegla7UpCI-16" vertex="1">
          <mxGeometry x="342.25" y="299.5" width="30" height="30" as="geometry" />
        </mxCell>
        <mxCell id="TdoV821Zneaegla7UpCI-287" value="" style="ellipse;whiteSpace=wrap;html=1;strokeWidth=0;fillWeight=2;hachureGap=8;fillStyle=zigzag;sketch=1;fontColor=#333333;shadow=0;fillColor=#FF0000;strokeColor=none;" parent="TdoV821Zneaegla7UpCI-16" vertex="1">
          <mxGeometry x="342.25" y="297" width="30" height="30" as="geometry" />
        </mxCell>
        <mxCell id="TdoV821Zneaegla7UpCI-288" value="" style="ellipse;whiteSpace=wrap;html=1;strokeWidth=2;fillWeight=2;hachureGap=8;fillStyle=solid;sketch=1;fontColor=#333333;shadow=0;strokeColor=#808080;fillColor=#808080;" parent="TdoV821Zneaegla7UpCI-16" vertex="1">
          <mxGeometry x="257" y="367" width="38.5" height="35" as="geometry" />
        </mxCell>
        <mxCell id="TdoV821Zneaegla7UpCI-289" value="" style="ellipse;whiteSpace=wrap;html=1;strokeWidth=2;fillWeight=2;hachureGap=8;fillStyle=dots;sketch=1;fontColor=#333333;shadow=0;fillColor=none;strokeColor=#333333;" parent="TdoV821Zneaegla7UpCI-16" vertex="1">
          <mxGeometry x="261.25" y="369.5" width="30" height="30" as="geometry" />
        </mxCell>
        <mxCell id="TdoV821Zneaegla7UpCI-290" value="" style="ellipse;whiteSpace=wrap;html=1;strokeWidth=0;fillWeight=2;hachureGap=8;fillStyle=zigzag;sketch=1;fontColor=#333333;shadow=0;fillColor=#FF0000;strokeColor=none;" parent="TdoV821Zneaegla7UpCI-16" vertex="1">
          <mxGeometry x="261.25" y="367" width="30" height="30" as="geometry" />
        </mxCell>
        <mxCell id="TdoV821Zneaegla7UpCI-291" value="" style="ellipse;whiteSpace=wrap;html=1;strokeWidth=2;fillWeight=2;hachureGap=8;fillStyle=solid;sketch=1;fontColor=#333333;shadow=0;strokeColor=#808080;fillColor=#808080;" parent="TdoV821Zneaegla7UpCI-16" vertex="1">
          <mxGeometry x="397" y="307" width="38.5" height="35" as="geometry" />
        </mxCell>
        <mxCell id="TdoV821Zneaegla7UpCI-292" value="" style="ellipse;whiteSpace=wrap;html=1;strokeWidth=2;fillWeight=2;hachureGap=8;fillStyle=dots;sketch=1;fontColor=#333333;shadow=0;fillColor=none;strokeColor=#333333;" parent="TdoV821Zneaegla7UpCI-16" vertex="1">
          <mxGeometry x="401.25" y="309.5" width="30" height="30" as="geometry" />
        </mxCell>
        <mxCell id="TdoV821Zneaegla7UpCI-293" value="" style="ellipse;whiteSpace=wrap;html=1;strokeWidth=0;fillWeight=2;hachureGap=8;fillStyle=zigzag;sketch=1;fontColor=#333333;shadow=0;fillColor=#FF0000;strokeColor=none;" parent="TdoV821Zneaegla7UpCI-16" vertex="1">
          <mxGeometry x="401.25" y="307" width="30" height="30" as="geometry" />
        </mxCell>
        <mxCell id="TdoV821Zneaegla7UpCI-294" value="" style="ellipse;whiteSpace=wrap;html=1;strokeWidth=2;fillWeight=2;hachureGap=8;fillStyle=solid;sketch=1;fontColor=#333333;shadow=0;strokeColor=#808080;fillColor=#808080;" parent="TdoV821Zneaegla7UpCI-16" vertex="1">
          <mxGeometry x="319" y="342" width="38.5" height="35" as="geometry" />
        </mxCell>
        <mxCell id="TdoV821Zneaegla7UpCI-295" value="" style="ellipse;whiteSpace=wrap;html=1;strokeWidth=2;fillWeight=2;hachureGap=8;fillStyle=dots;sketch=1;fontColor=#333333;shadow=0;fillColor=none;strokeColor=#333333;" parent="TdoV821Zneaegla7UpCI-16" vertex="1">
          <mxGeometry x="323.25" y="344.5" width="30" height="30" as="geometry" />
        </mxCell>
        <mxCell id="TdoV821Zneaegla7UpCI-296" value="" style="ellipse;whiteSpace=wrap;html=1;strokeWidth=0;fillWeight=2;hachureGap=8;fillStyle=zigzag;sketch=1;fontColor=#333333;shadow=0;fillColor=#FF0000;strokeColor=none;" parent="TdoV821Zneaegla7UpCI-16" vertex="1">
          <mxGeometry x="323.25" y="342" width="30" height="30" as="geometry" />
        </mxCell>
        <mxCell id="TdoV821Zneaegla7UpCI-297" value="" style="ellipse;whiteSpace=wrap;html=1;strokeWidth=2;fillWeight=2;hachureGap=8;fillStyle=solid;sketch=1;fontColor=#333333;shadow=0;strokeColor=#808080;fillColor=#808080;" parent="TdoV821Zneaegla7UpCI-16" vertex="1">
          <mxGeometry x="415.5" y="354.5" width="38.5" height="35" as="geometry" />
        </mxCell>
        <mxCell id="TdoV821Zneaegla7UpCI-298" value="" style="ellipse;whiteSpace=wrap;html=1;strokeWidth=2;fillWeight=2;hachureGap=8;fillStyle=dots;sketch=1;fontColor=#333333;shadow=0;fillColor=none;strokeColor=#333333;" parent="TdoV821Zneaegla7UpCI-16" vertex="1">
          <mxGeometry x="419.75" y="357" width="30" height="30" as="geometry" />
        </mxCell>
        <mxCell id="TdoV821Zneaegla7UpCI-299" value="" style="ellipse;whiteSpace=wrap;html=1;strokeWidth=0;fillWeight=2;hachureGap=8;fillStyle=zigzag;sketch=1;fontColor=#333333;shadow=0;fillColor=#FF0000;strokeColor=none;" parent="TdoV821Zneaegla7UpCI-16" vertex="1">
          <mxGeometry x="419.75" y="354.5" width="30" height="30" as="geometry" />
        </mxCell>
        <mxCell id="TdoV821Zneaegla7UpCI-300" value="" style="ellipse;whiteSpace=wrap;html=1;strokeWidth=2;fillWeight=2;hachureGap=8;fillStyle=solid;sketch=1;fontColor=#333333;shadow=0;strokeColor=#808080;fillColor=#808080;" parent="TdoV821Zneaegla7UpCI-16" vertex="1">
          <mxGeometry x="273.49" y="422" width="38.5" height="35" as="geometry" />
        </mxCell>
        <mxCell id="TdoV821Zneaegla7UpCI-301" value="" style="ellipse;whiteSpace=wrap;html=1;strokeWidth=2;fillWeight=2;hachureGap=8;fillStyle=dots;sketch=1;fontColor=#333333;shadow=0;fillColor=none;strokeColor=#333333;" parent="TdoV821Zneaegla7UpCI-16" vertex="1">
          <mxGeometry x="277.74" y="424.5" width="30" height="30" as="geometry" />
        </mxCell>
        <mxCell id="TdoV821Zneaegla7UpCI-302" value="" style="ellipse;whiteSpace=wrap;html=1;strokeWidth=0;fillWeight=2;hachureGap=8;fillStyle=zigzag;sketch=1;fontColor=#333333;shadow=0;fillColor=#FF0000;strokeColor=none;" parent="TdoV821Zneaegla7UpCI-16" vertex="1">
          <mxGeometry x="277.74" y="422" width="30" height="30" as="geometry" />
        </mxCell>
        <mxCell id="TdoV821Zneaegla7UpCI-303" value="" style="ellipse;whiteSpace=wrap;html=1;strokeWidth=2;fillWeight=2;hachureGap=8;fillStyle=solid;sketch=1;fontColor=#333333;shadow=0;strokeColor=#808080;fillColor=#808080;" parent="TdoV821Zneaegla7UpCI-16" vertex="1">
          <mxGeometry x="314.75" y="389.5" width="38.5" height="35" as="geometry" />
        </mxCell>
        <mxCell id="TdoV821Zneaegla7UpCI-304" value="" style="ellipse;whiteSpace=wrap;html=1;strokeWidth=2;fillWeight=2;hachureGap=8;fillStyle=dots;sketch=1;fontColor=#333333;shadow=0;fillColor=none;strokeColor=#333333;" parent="TdoV821Zneaegla7UpCI-16" vertex="1">
          <mxGeometry x="319" y="392" width="30" height="30" as="geometry" />
        </mxCell>
        <mxCell id="TdoV821Zneaegla7UpCI-305" value="" style="ellipse;whiteSpace=wrap;html=1;strokeWidth=0;fillWeight=2;hachureGap=8;fillStyle=zigzag;sketch=1;fontColor=#333333;shadow=0;fillColor=#FF0000;strokeColor=none;" parent="TdoV821Zneaegla7UpCI-16" vertex="1">
          <mxGeometry x="319" y="389.5" width="30" height="30" as="geometry" />
        </mxCell>
        <mxCell id="TdoV821Zneaegla7UpCI-306" value="" style="ellipse;whiteSpace=wrap;html=1;strokeWidth=2;fillWeight=2;hachureGap=8;fillStyle=solid;sketch=1;fontColor=#333333;shadow=0;strokeColor=#808080;fillColor=#808080;" parent="TdoV821Zneaegla7UpCI-16" vertex="1">
          <mxGeometry x="342.75" y="427" width="38.5" height="35" as="geometry" />
        </mxCell>
        <mxCell id="TdoV821Zneaegla7UpCI-307" value="" style="ellipse;whiteSpace=wrap;html=1;strokeWidth=2;fillWeight=2;hachureGap=8;fillStyle=dots;sketch=1;fontColor=#333333;shadow=0;fillColor=none;strokeColor=#333333;" parent="TdoV821Zneaegla7UpCI-16" vertex="1">
          <mxGeometry x="347" y="429.5" width="30" height="30" as="geometry" />
        </mxCell>
        <mxCell id="TdoV821Zneaegla7UpCI-308" value="" style="ellipse;whiteSpace=wrap;html=1;strokeWidth=0;fillWeight=2;hachureGap=8;fillStyle=zigzag;sketch=1;fontColor=#333333;shadow=0;fillColor=#FF0000;strokeColor=none;" parent="TdoV821Zneaegla7UpCI-16" vertex="1">
          <mxGeometry x="347" y="427" width="30" height="30" as="geometry" />
        </mxCell>
        <mxCell id="TdoV821Zneaegla7UpCI-309" value="" style="ellipse;whiteSpace=wrap;html=1;strokeWidth=2;fillWeight=2;hachureGap=8;fillStyle=solid;sketch=1;fontColor=#333333;shadow=0;strokeColor=#808080;fillColor=#808080;" parent="TdoV821Zneaegla7UpCI-16" vertex="1">
          <mxGeometry x="411.25" y="427" width="38.5" height="35" as="geometry" />
        </mxCell>
        <mxCell id="TdoV821Zneaegla7UpCI-310" value="" style="ellipse;whiteSpace=wrap;html=1;strokeWidth=2;fillWeight=2;hachureGap=8;fillStyle=dots;sketch=1;fontColor=#333333;shadow=0;fillColor=none;strokeColor=#333333;" parent="TdoV821Zneaegla7UpCI-16" vertex="1">
          <mxGeometry x="415.5" y="429.5" width="30" height="30" as="geometry" />
        </mxCell>
        <mxCell id="TdoV821Zneaegla7UpCI-311" value="" style="ellipse;whiteSpace=wrap;html=1;strokeWidth=0;fillWeight=2;hachureGap=8;fillStyle=zigzag;sketch=1;fontColor=#333333;shadow=0;fillColor=#FF0000;strokeColor=none;" parent="TdoV821Zneaegla7UpCI-16" vertex="1">
          <mxGeometry x="415.5" y="427" width="30" height="30" as="geometry" />
        </mxCell>
        <mxCell id="TdoV821Zneaegla7UpCI-312" value="" style="ellipse;whiteSpace=wrap;html=1;strokeWidth=2;fillWeight=2;hachureGap=8;fillStyle=solid;sketch=1;fontColor=#333333;shadow=0;strokeColor=#808080;fillColor=#808080;" parent="TdoV821Zneaegla7UpCI-16" vertex="1">
          <mxGeometry x="362.75" y="344.5" width="38.5" height="35" as="geometry" />
        </mxCell>
        <mxCell id="TdoV821Zneaegla7UpCI-313" value="" style="ellipse;whiteSpace=wrap;html=1;strokeWidth=2;fillWeight=2;hachureGap=8;fillStyle=dots;sketch=1;fontColor=#333333;shadow=0;fillColor=none;strokeColor=#333333;" parent="TdoV821Zneaegla7UpCI-16" vertex="1">
          <mxGeometry x="367" y="347" width="30" height="30" as="geometry" />
        </mxCell>
        <mxCell id="TdoV821Zneaegla7UpCI-314" value="" style="ellipse;whiteSpace=wrap;html=1;strokeWidth=0;fillWeight=2;hachureGap=8;fillStyle=zigzag;sketch=1;fontColor=#333333;shadow=0;fillColor=#FF0000;strokeColor=none;" parent="TdoV821Zneaegla7UpCI-16" vertex="1">
          <mxGeometry x="367" y="344.5" width="30" height="30" as="geometry" />
        </mxCell>
        <mxCell id="TdoV821Zneaegla7UpCI-319" value="" style="line;strokeWidth=1;fillColor=none;align=left;verticalAlign=middle;spacingTop=-1;spacingLeft=3;spacingRight=3;rotatable=0;labelPosition=right;points=[];portConstraint=eastwest;rounded=1;shadow=0;glass=0;fontSize=16;fontColor=#FFFFFF;html=1;sketch=1;" parent="TdoV821Zneaegla7UpCI-16" vertex="1">
          <mxGeometry x="237.01" y="467" width="230" height="11" as="geometry" />
        </mxCell>
        <mxCell id="TdoV821Zneaegla7UpCI-315" value="IndividualConditionFFC.tif" style="swimlane;startSize=23;shadow=0;sketch=0;" parent="TdoV821Zneaegla7UpCI-16" vertex="1">
          <mxGeometry x="237" y="247" width="230" height="255" as="geometry" />
        </mxCell>
        <mxCell id="TdoV821Zneaegla7UpCI-316" value="" style="line;strokeWidth=7;fillColor=none;align=left;verticalAlign=middle;spacingTop=-1;spacingLeft=3;spacingRight=3;rotatable=0;labelPosition=right;points=[];portConstraint=eastwest;rounded=1;shadow=0;glass=0;fontSize=16;fontColor=#FFFFFF;html=1;sketch=0;opacity=30;perimeterSpacing=2;" parent="TdoV821Zneaegla7UpCI-315" vertex="1">
          <mxGeometry x="40" y="235" width="160" height="11" as="geometry" />
        </mxCell>
        <mxCell id="TdoV821Zneaegla7UpCI-317" value="" style="ellipse;whiteSpace=wrap;html=1;aspect=fixed;rounded=1;shadow=0;glass=0;fontSize=16;fontColor=#FFFFFF;strokeColor=#000000;strokeWidth=1;fillColor=#CCCCCC;gradientColor=none;gradientDirection=south;" parent="TdoV821Zneaegla7UpCI-315" vertex="1">
          <mxGeometry x="30.000000000000004" y="235" width="10" height="10" as="geometry" />
        </mxCell>
        <mxCell id="TdoV821Zneaegla7UpCI-318" value="&lt;font color=&quot;#000000&quot; style=&quot;font-size: 10px&quot;&gt;0&lt;/font&gt;" style="text;html=1;strokeColor=none;fillColor=none;align=center;verticalAlign=middle;whiteSpace=wrap;rounded=0;shadow=0;glass=0;fontSize=10;fontColor=#FFFFFF;" parent="TdoV821Zneaegla7UpCI-315" vertex="1">
          <mxGeometry x="190" y="230" width="40" height="20" as="geometry" />
        </mxCell>
        <mxCell id="TdoV821Zneaegla7UpCI-278" value="&lt;font color=&quot;#000000&quot; style=&quot;font-size: 10px&quot;&gt;T 99&lt;/font&gt;" style="text;html=1;strokeColor=none;fillColor=none;align=center;verticalAlign=middle;whiteSpace=wrap;rounded=0;shadow=0;glass=0;fontSize=10;fontColor=#FFFFFF;" parent="TdoV821Zneaegla7UpCI-315" vertex="1">
          <mxGeometry x="-3" y="230" width="40" height="20" as="geometry" />
        </mxCell>
        <mxCell id="TdoV821Zneaegla7UpCI-324" style="edgeStyle=orthogonalEdgeStyle;rounded=1;sketch=0;jumpStyle=arc;jumpSize=6;orthogonalLoop=1;jettySize=auto;html=1;shadow=0;fontSize=10;fontColor=#FFFFFF;startArrow=none;startFill=0;strokeWidth=3;entryX=0.5;entryY=0;entryDx=0;entryDy=0;" parent="TdoV821Zneaegla7UpCI-16" source="TdoV821Zneaegla7UpCI-315" target="GacyLn4TmJQCc22O2fjG-173" edge="1">
          <mxGeometry relative="1" as="geometry">
            <mxPoint x="939.52" y="107" as="targetPoint" />
          </mxGeometry>
        </mxCell>
        <mxCell id="TdoV821Zneaegla7UpCI-325" style="edgeStyle=orthogonalEdgeStyle;rounded=1;sketch=0;jumpStyle=arc;jumpSize=6;orthogonalLoop=1;jettySize=auto;html=1;entryX=0.5;entryY=0;entryDx=0;entryDy=0;shadow=0;fontSize=10;fontColor=#FFFFFF;startArrow=none;startFill=0;strokeWidth=3;" parent="TdoV821Zneaegla7UpCI-16" source="TdoV821Zneaegla7UpCI-277" target="TdoV821Zneaegla7UpCI-315" edge="1">
          <mxGeometry relative="1" as="geometry" />
        </mxCell>
        <mxCell id="GacyLn4TmJQCc22O2fjG-46" value="" style="ellipse;whiteSpace=wrap;html=1;strokeWidth=2;fillWeight=2;hachureGap=8;fillStyle=solid;sketch=1;fontColor=#333333;shadow=0;strokeColor=#808080;fillColor=#808080;" parent="TdoV821Zneaegla7UpCI-16" vertex="1">
          <mxGeometry x="257.21000000000004" y="790" width="38.5" height="35" as="geometry" />
        </mxCell>
        <mxCell id="GacyLn4TmJQCc22O2fjG-47" value="" style="ellipse;whiteSpace=wrap;html=1;strokeWidth=2;fillWeight=2;hachureGap=8;fillStyle=dots;sketch=1;fontColor=#333333;shadow=0;fillColor=none;strokeColor=#333333;" parent="TdoV821Zneaegla7UpCI-16" vertex="1">
          <mxGeometry x="261.46000000000004" y="792.5" width="30" height="30" as="geometry" />
        </mxCell>
        <mxCell id="GacyLn4TmJQCc22O2fjG-48" value="" style="ellipse;whiteSpace=wrap;html=1;strokeWidth=0;fillWeight=2;hachureGap=8;fillStyle=zigzag;sketch=1;fontColor=#333333;shadow=0;fillColor=#FF0000;strokeColor=none;" parent="TdoV821Zneaegla7UpCI-16" vertex="1">
          <mxGeometry x="261.46000000000004" y="790" width="30" height="30" as="geometry" />
        </mxCell>
        <mxCell id="GacyLn4TmJQCc22O2fjG-49" value="" style="ellipse;whiteSpace=wrap;html=1;strokeWidth=2;fillWeight=2;hachureGap=8;fillStyle=solid;sketch=1;fontColor=#333333;shadow=0;strokeColor=#808080;fillColor=#808080;" parent="TdoV821Zneaegla7UpCI-16" vertex="1">
          <mxGeometry x="377.21000000000004" y="890" width="38.5" height="35" as="geometry" />
        </mxCell>
        <mxCell id="GacyLn4TmJQCc22O2fjG-50" value="" style="ellipse;whiteSpace=wrap;html=1;strokeWidth=2;fillWeight=2;hachureGap=8;fillStyle=dots;sketch=1;fontColor=#333333;shadow=0;fillColor=none;strokeColor=#333333;" parent="TdoV821Zneaegla7UpCI-16" vertex="1">
          <mxGeometry x="381.46000000000004" y="892.5" width="30" height="30" as="geometry" />
        </mxCell>
        <mxCell id="GacyLn4TmJQCc22O2fjG-51" value="" style="ellipse;whiteSpace=wrap;html=1;strokeWidth=0;fillWeight=2;hachureGap=8;fillStyle=zigzag;sketch=1;fontColor=#333333;shadow=0;fillColor=#FF0000;strokeColor=none;" parent="TdoV821Zneaegla7UpCI-16" vertex="1">
          <mxGeometry x="381.46000000000004" y="890" width="30" height="30" as="geometry" />
        </mxCell>
        <mxCell id="GacyLn4TmJQCc22O2fjG-52" value="" style="ellipse;whiteSpace=wrap;html=1;strokeWidth=2;fillWeight=2;hachureGap=8;fillStyle=solid;sketch=1;fontColor=#333333;shadow=0;strokeColor=#808080;fillColor=#808080;" parent="TdoV821Zneaegla7UpCI-16" vertex="1">
          <mxGeometry x="338.21000000000004" y="800" width="38.5" height="35" as="geometry" />
        </mxCell>
        <mxCell id="GacyLn4TmJQCc22O2fjG-53" value="" style="ellipse;whiteSpace=wrap;html=1;strokeWidth=2;fillWeight=2;hachureGap=8;fillStyle=dots;sketch=1;fontColor=#333333;shadow=0;fillColor=none;strokeColor=#333333;" parent="TdoV821Zneaegla7UpCI-16" vertex="1">
          <mxGeometry x="342.46000000000004" y="802.5" width="30" height="30" as="geometry" />
        </mxCell>
        <mxCell id="GacyLn4TmJQCc22O2fjG-54" value="" style="ellipse;whiteSpace=wrap;html=1;strokeWidth=0;fillWeight=2;hachureGap=8;fillStyle=zigzag;sketch=1;fontColor=#333333;shadow=0;fillColor=#FF0000;strokeColor=none;" parent="TdoV821Zneaegla7UpCI-16" vertex="1">
          <mxGeometry x="342.46000000000004" y="800" width="30" height="30" as="geometry" />
        </mxCell>
        <mxCell id="GacyLn4TmJQCc22O2fjG-55" value="" style="ellipse;whiteSpace=wrap;html=1;strokeWidth=2;fillWeight=2;hachureGap=8;fillStyle=solid;sketch=1;fontColor=#333333;shadow=0;strokeColor=#808080;fillColor=#808080;" parent="TdoV821Zneaegla7UpCI-16" vertex="1">
          <mxGeometry x="257.21000000000004" y="870" width="38.5" height="35" as="geometry" />
        </mxCell>
        <mxCell id="GacyLn4TmJQCc22O2fjG-56" value="" style="ellipse;whiteSpace=wrap;html=1;strokeWidth=2;fillWeight=2;hachureGap=8;fillStyle=dots;sketch=1;fontColor=#333333;shadow=0;fillColor=none;strokeColor=#333333;" parent="TdoV821Zneaegla7UpCI-16" vertex="1">
          <mxGeometry x="261.46000000000004" y="872.5" width="30" height="30" as="geometry" />
        </mxCell>
        <mxCell id="GacyLn4TmJQCc22O2fjG-57" value="" style="ellipse;whiteSpace=wrap;html=1;strokeWidth=0;fillWeight=2;hachureGap=8;fillStyle=zigzag;sketch=1;fontColor=#333333;shadow=0;fillColor=#FF0000;strokeColor=none;" parent="TdoV821Zneaegla7UpCI-16" vertex="1">
          <mxGeometry x="261.46000000000004" y="870" width="30" height="30" as="geometry" />
        </mxCell>
        <mxCell id="GacyLn4TmJQCc22O2fjG-58" value="" style="ellipse;whiteSpace=wrap;html=1;strokeWidth=2;fillWeight=2;hachureGap=8;fillStyle=solid;sketch=1;fontColor=#333333;shadow=0;strokeColor=#808080;fillColor=#808080;" parent="TdoV821Zneaegla7UpCI-16" vertex="1">
          <mxGeometry x="397.21000000000004" y="810" width="38.5" height="35" as="geometry" />
        </mxCell>
        <mxCell id="GacyLn4TmJQCc22O2fjG-59" value="" style="ellipse;whiteSpace=wrap;html=1;strokeWidth=2;fillWeight=2;hachureGap=8;fillStyle=dots;sketch=1;fontColor=#333333;shadow=0;fillColor=none;strokeColor=#333333;" parent="TdoV821Zneaegla7UpCI-16" vertex="1">
          <mxGeometry x="401.46000000000004" y="812.5" width="30" height="30" as="geometry" />
        </mxCell>
        <mxCell id="GacyLn4TmJQCc22O2fjG-60" value="" style="ellipse;whiteSpace=wrap;html=1;strokeWidth=0;fillWeight=2;hachureGap=8;fillStyle=zigzag;sketch=1;fontColor=#333333;shadow=0;fillColor=#FF0000;strokeColor=none;" parent="TdoV821Zneaegla7UpCI-16" vertex="1">
          <mxGeometry x="401.46000000000004" y="810" width="30" height="30" as="geometry" />
        </mxCell>
        <mxCell id="GacyLn4TmJQCc22O2fjG-61" value="" style="ellipse;whiteSpace=wrap;html=1;strokeWidth=2;fillWeight=2;hachureGap=8;fillStyle=solid;sketch=1;fontColor=#333333;shadow=0;strokeColor=#808080;fillColor=#808080;" parent="TdoV821Zneaegla7UpCI-16" vertex="1">
          <mxGeometry x="319.21000000000004" y="845" width="38.5" height="35" as="geometry" />
        </mxCell>
        <mxCell id="GacyLn4TmJQCc22O2fjG-62" value="" style="ellipse;whiteSpace=wrap;html=1;strokeWidth=2;fillWeight=2;hachureGap=8;fillStyle=dots;sketch=1;fontColor=#333333;shadow=0;fillColor=none;strokeColor=#333333;" parent="TdoV821Zneaegla7UpCI-16" vertex="1">
          <mxGeometry x="323.46000000000004" y="847.5" width="30" height="30" as="geometry" />
        </mxCell>
        <mxCell id="GacyLn4TmJQCc22O2fjG-63" value="" style="ellipse;whiteSpace=wrap;html=1;strokeWidth=0;fillWeight=2;hachureGap=8;fillStyle=zigzag;sketch=1;fontColor=#333333;shadow=0;fillColor=#FF0000;strokeColor=none;" parent="TdoV821Zneaegla7UpCI-16" vertex="1">
          <mxGeometry x="323.46000000000004" y="845" width="30" height="30" as="geometry" />
        </mxCell>
        <mxCell id="GacyLn4TmJQCc22O2fjG-64" value="" style="ellipse;whiteSpace=wrap;html=1;strokeWidth=2;fillWeight=2;hachureGap=8;fillStyle=solid;sketch=1;fontColor=#333333;shadow=0;strokeColor=#808080;fillColor=#808080;" parent="TdoV821Zneaegla7UpCI-16" vertex="1">
          <mxGeometry x="415.71000000000004" y="857.5" width="38.5" height="35" as="geometry" />
        </mxCell>
        <mxCell id="GacyLn4TmJQCc22O2fjG-65" value="" style="ellipse;whiteSpace=wrap;html=1;strokeWidth=2;fillWeight=2;hachureGap=8;fillStyle=dots;sketch=1;fontColor=#333333;shadow=0;fillColor=none;strokeColor=#333333;" parent="TdoV821Zneaegla7UpCI-16" vertex="1">
          <mxGeometry x="419.96000000000004" y="860" width="30" height="30" as="geometry" />
        </mxCell>
        <mxCell id="GacyLn4TmJQCc22O2fjG-66" value="" style="ellipse;whiteSpace=wrap;html=1;strokeWidth=0;fillWeight=2;hachureGap=8;fillStyle=zigzag;sketch=1;fontColor=#333333;shadow=0;fillColor=#FF0000;strokeColor=none;" parent="TdoV821Zneaegla7UpCI-16" vertex="1">
          <mxGeometry x="419.96000000000004" y="857.5" width="30" height="30" as="geometry" />
        </mxCell>
        <mxCell id="GacyLn4TmJQCc22O2fjG-67" value="" style="ellipse;whiteSpace=wrap;html=1;strokeWidth=2;fillWeight=2;hachureGap=8;fillStyle=solid;sketch=1;fontColor=#333333;shadow=0;strokeColor=#808080;fillColor=#808080;" parent="TdoV821Zneaegla7UpCI-16" vertex="1">
          <mxGeometry x="273.6999999999998" y="925" width="38.5" height="35" as="geometry" />
        </mxCell>
        <mxCell id="GacyLn4TmJQCc22O2fjG-68" value="" style="ellipse;whiteSpace=wrap;html=1;strokeWidth=2;fillWeight=2;hachureGap=8;fillStyle=dots;sketch=1;fontColor=#333333;shadow=0;fillColor=none;strokeColor=#333333;" parent="TdoV821Zneaegla7UpCI-16" vertex="1">
          <mxGeometry x="277.9499999999998" y="927.5" width="30" height="30" as="geometry" />
        </mxCell>
        <mxCell id="GacyLn4TmJQCc22O2fjG-69" value="" style="ellipse;whiteSpace=wrap;html=1;strokeWidth=0;fillWeight=2;hachureGap=8;fillStyle=zigzag;sketch=1;fontColor=#333333;shadow=0;fillColor=#FF0000;strokeColor=none;" parent="TdoV821Zneaegla7UpCI-16" vertex="1">
          <mxGeometry x="277.9499999999998" y="925" width="30" height="30" as="geometry" />
        </mxCell>
        <mxCell id="GacyLn4TmJQCc22O2fjG-70" value="" style="ellipse;whiteSpace=wrap;html=1;strokeWidth=2;fillWeight=2;hachureGap=8;fillStyle=solid;sketch=1;fontColor=#333333;shadow=0;strokeColor=#808080;fillColor=#808080;" parent="TdoV821Zneaegla7UpCI-16" vertex="1">
          <mxGeometry x="314.96000000000004" y="892.5" width="38.5" height="35" as="geometry" />
        </mxCell>
        <mxCell id="GacyLn4TmJQCc22O2fjG-71" value="" style="ellipse;whiteSpace=wrap;html=1;strokeWidth=2;fillWeight=2;hachureGap=8;fillStyle=dots;sketch=1;fontColor=#333333;shadow=0;fillColor=none;strokeColor=#333333;" parent="TdoV821Zneaegla7UpCI-16" vertex="1">
          <mxGeometry x="319.21000000000004" y="895" width="30" height="30" as="geometry" />
        </mxCell>
        <mxCell id="GacyLn4TmJQCc22O2fjG-72" value="" style="ellipse;whiteSpace=wrap;html=1;strokeWidth=0;fillWeight=2;hachureGap=8;fillStyle=zigzag;sketch=1;fontColor=#333333;shadow=0;fillColor=#FF0000;strokeColor=none;" parent="TdoV821Zneaegla7UpCI-16" vertex="1">
          <mxGeometry x="319.21000000000004" y="892.5" width="30" height="30" as="geometry" />
        </mxCell>
        <mxCell id="GacyLn4TmJQCc22O2fjG-73" value="" style="ellipse;whiteSpace=wrap;html=1;strokeWidth=2;fillWeight=2;hachureGap=8;fillStyle=solid;sketch=1;fontColor=#333333;shadow=0;strokeColor=#808080;fillColor=#808080;" parent="TdoV821Zneaegla7UpCI-16" vertex="1">
          <mxGeometry x="342.96000000000004" y="930" width="38.5" height="35" as="geometry" />
        </mxCell>
        <mxCell id="GacyLn4TmJQCc22O2fjG-74" value="" style="ellipse;whiteSpace=wrap;html=1;strokeWidth=2;fillWeight=2;hachureGap=8;fillStyle=dots;sketch=1;fontColor=#333333;shadow=0;fillColor=none;strokeColor=#333333;" parent="TdoV821Zneaegla7UpCI-16" vertex="1">
          <mxGeometry x="347.21000000000004" y="932.5" width="30" height="30" as="geometry" />
        </mxCell>
        <mxCell id="GacyLn4TmJQCc22O2fjG-75" value="" style="ellipse;whiteSpace=wrap;html=1;strokeWidth=0;fillWeight=2;hachureGap=8;fillStyle=zigzag;sketch=1;fontColor=#333333;shadow=0;fillColor=#FF0000;strokeColor=none;" parent="TdoV821Zneaegla7UpCI-16" vertex="1">
          <mxGeometry x="347.21000000000004" y="930" width="30" height="30" as="geometry" />
        </mxCell>
        <mxCell id="GacyLn4TmJQCc22O2fjG-76" value="" style="ellipse;whiteSpace=wrap;html=1;strokeWidth=2;fillWeight=2;hachureGap=8;fillStyle=solid;sketch=1;fontColor=#333333;shadow=0;strokeColor=#808080;fillColor=#808080;" parent="TdoV821Zneaegla7UpCI-16" vertex="1">
          <mxGeometry x="411.46000000000004" y="930" width="38.5" height="35" as="geometry" />
        </mxCell>
        <mxCell id="GacyLn4TmJQCc22O2fjG-77" value="" style="ellipse;whiteSpace=wrap;html=1;strokeWidth=2;fillWeight=2;hachureGap=8;fillStyle=dots;sketch=1;fontColor=#333333;shadow=0;fillColor=none;strokeColor=#333333;" parent="TdoV821Zneaegla7UpCI-16" vertex="1">
          <mxGeometry x="415.71000000000004" y="932.5" width="30" height="30" as="geometry" />
        </mxCell>
        <mxCell id="GacyLn4TmJQCc22O2fjG-78" value="" style="ellipse;whiteSpace=wrap;html=1;strokeWidth=0;fillWeight=2;hachureGap=8;fillStyle=zigzag;sketch=1;fontColor=#333333;shadow=0;fillColor=#FF0000;strokeColor=none;" parent="TdoV821Zneaegla7UpCI-16" vertex="1">
          <mxGeometry x="415.71000000000004" y="930" width="30" height="30" as="geometry" />
        </mxCell>
        <mxCell id="GacyLn4TmJQCc22O2fjG-79" value="" style="ellipse;whiteSpace=wrap;html=1;strokeWidth=2;fillWeight=2;hachureGap=8;fillStyle=solid;sketch=1;fontColor=#333333;shadow=0;strokeColor=#808080;fillColor=#808080;" parent="TdoV821Zneaegla7UpCI-16" vertex="1">
          <mxGeometry x="362.96000000000004" y="847.5" width="38.5" height="35" as="geometry" />
        </mxCell>
        <mxCell id="GacyLn4TmJQCc22O2fjG-80" value="" style="ellipse;whiteSpace=wrap;html=1;strokeWidth=2;fillWeight=2;hachureGap=8;fillStyle=dots;sketch=1;fontColor=#333333;shadow=0;fillColor=none;strokeColor=#333333;" parent="TdoV821Zneaegla7UpCI-16" vertex="1">
          <mxGeometry x="367.21000000000004" y="850" width="30" height="30" as="geometry" />
        </mxCell>
        <mxCell id="GacyLn4TmJQCc22O2fjG-81" value="" style="ellipse;whiteSpace=wrap;html=1;strokeWidth=0;fillWeight=2;hachureGap=8;fillStyle=zigzag;sketch=1;fontColor=#333333;shadow=0;fillColor=#FF0000;strokeColor=none;" parent="TdoV821Zneaegla7UpCI-16" vertex="1">
          <mxGeometry x="367.21000000000004" y="847.5" width="30" height="30" as="geometry" />
        </mxCell>
        <mxCell id="GacyLn4TmJQCc22O2fjG-82" value="" style="line;strokeWidth=1;fillColor=none;align=left;verticalAlign=middle;spacingTop=-1;spacingLeft=3;spacingRight=3;rotatable=0;labelPosition=right;points=[];portConstraint=eastwest;rounded=1;shadow=0;glass=0;fontSize=16;fontColor=#FFFFFF;html=1;sketch=1;" parent="TdoV821Zneaegla7UpCI-16" vertex="1">
          <mxGeometry x="237.22000000000023" y="970" width="230" height="11" as="geometry" />
        </mxCell>
        <mxCell id="GacyLn4TmJQCc22O2fjG-88" style="edgeStyle=orthogonalEdgeStyle;rounded=1;orthogonalLoop=1;jettySize=auto;html=1;exitX=0.5;exitY=1;exitDx=0;exitDy=0;entryX=0.5;entryY=0;entryDx=0;entryDy=0;fontSize=30;strokeWidth=3;shadow=0;" parent="TdoV821Zneaegla7UpCI-16" source="GacyLn4TmJQCc22O2fjG-83" target="TdoV821Zneaegla7UpCI-22" edge="1">
          <mxGeometry relative="1" as="geometry" />
        </mxCell>
        <mxCell id="GacyLn4TmJQCc22O2fjG-83" value="IndividualConditionFFC.tif" style="swimlane;startSize=23;shadow=0;sketch=0;" parent="TdoV821Zneaegla7UpCI-16" vertex="1">
          <mxGeometry x="237.21" y="750" width="230" height="255" as="geometry" />
        </mxCell>
        <mxCell id="GacyLn4TmJQCc22O2fjG-84" value="" style="line;strokeWidth=7;fillColor=none;align=left;verticalAlign=middle;spacingTop=-1;spacingLeft=3;spacingRight=3;rotatable=0;labelPosition=right;points=[];portConstraint=eastwest;rounded=1;shadow=0;glass=0;fontSize=16;fontColor=#FFFFFF;html=1;sketch=0;opacity=30;perimeterSpacing=2;" parent="GacyLn4TmJQCc22O2fjG-83" vertex="1">
          <mxGeometry x="40" y="235" width="160" height="11" as="geometry" />
        </mxCell>
        <mxCell id="GacyLn4TmJQCc22O2fjG-85" value="" style="ellipse;whiteSpace=wrap;html=1;aspect=fixed;rounded=1;shadow=0;glass=0;fontSize=16;fontColor=#FFFFFF;strokeColor=#000000;strokeWidth=1;fillColor=#CCCCCC;gradientColor=none;gradientDirection=south;" parent="GacyLn4TmJQCc22O2fjG-83" vertex="1">
          <mxGeometry x="30.000000000000004" y="235" width="10" height="10" as="geometry" />
        </mxCell>
        <mxCell id="GacyLn4TmJQCc22O2fjG-86" value="&lt;font color=&quot;#000000&quot; style=&quot;font-size: 10px&quot;&gt;0&lt;/font&gt;" style="text;html=1;strokeColor=none;fillColor=none;align=center;verticalAlign=middle;whiteSpace=wrap;rounded=0;shadow=0;glass=0;fontSize=10;fontColor=#FFFFFF;" parent="GacyLn4TmJQCc22O2fjG-83" vertex="1">
          <mxGeometry x="190" y="230" width="40" height="20" as="geometry" />
        </mxCell>
        <mxCell id="GacyLn4TmJQCc22O2fjG-87" value="&lt;font color=&quot;#000000&quot; style=&quot;font-size: 10px&quot;&gt;T 99&lt;/font&gt;" style="text;html=1;strokeColor=none;fillColor=none;align=center;verticalAlign=middle;whiteSpace=wrap;rounded=0;shadow=0;glass=0;fontSize=10;fontColor=#FFFFFF;" parent="GacyLn4TmJQCc22O2fjG-83" vertex="1">
          <mxGeometry x="-3" y="230" width="40" height="20" as="geometry" />
        </mxCell>
        <mxCell id="GacyLn4TmJQCc22O2fjG-215" value="" style="group;aspect=fixed;" parent="GacyLn4TmJQCc22O2fjG-83" vertex="1" connectable="0">
          <mxGeometry x="67.29999999999995" y="131" width="60" height="60" as="geometry" />
        </mxCell>
        <mxCell id="GacyLn4TmJQCc22O2fjG-216" value="" style="ellipse;whiteSpace=wrap;html=1;aspect=fixed;fontSize=30;strokeWidth=1;fillColor=none;gradientColor=none;verticalAlign=middle;" parent="GacyLn4TmJQCc22O2fjG-215" vertex="1">
          <mxGeometry width="57.138503733048736" height="57.138503733048736" as="geometry" />
        </mxCell>
        <mxCell id="GacyLn4TmJQCc22O2fjG-217" value="" style="group;aspect=fixed;" parent="GacyLn4TmJQCc22O2fjG-215" vertex="1" connectable="0">
          <mxGeometry x="1.680544227442615" y="1.68054422744261" width="58.319455772557205" height="58.31945577255738" as="geometry" />
        </mxCell>
        <mxCell id="GacyLn4TmJQCc22O2fjG-218" value="" style="ellipse;whiteSpace=wrap;html=1;aspect=fixed;fontSize=30;gradientColor=none;verticalAlign=middle;perimeterSpacing=0;strokeWidth=5;fillColor=none;strokeColor=#00FF00;" parent="GacyLn4TmJQCc22O2fjG-217" vertex="1">
          <mxGeometry width="53.77741527816352" height="53.77741527816352" as="geometry" />
        </mxCell>
        <mxCell id="GacyLn4TmJQCc22O2fjG-219" value="" style="ellipse;whiteSpace=wrap;html=1;aspect=fixed;fontSize=30;strokeWidth=1;fillColor=none;gradientColor=none;verticalAlign=middle;" parent="GacyLn4TmJQCc22O2fjG-217" vertex="1">
          <mxGeometry x="1.2637692590368395" y="1.263769259036916" width="51.25659893699961" height="51.25659893699961" as="geometry" />
        </mxCell>
        <mxCell id="GacyLn4TmJQCc22O2fjG-220" value="" style="ellipse;whiteSpace=wrap;html=1;aspect=fixed;fontSize=30;strokeColor=#000000;strokeWidth=1;fillColor=none;gradientColor=none;verticalAlign=middle;" parent="GacyLn4TmJQCc22O2fjG-217" vertex="1">
          <mxGeometry x="-2.8066433033673546" y="-2.7975011427700665" width="59.38747523998153" height="59.38747523998153" as="geometry" />
        </mxCell>
        <mxCell id="GacyLn4TmJQCc22O2fjG-227" value="" style="group;aspect=fixed;" parent="GacyLn4TmJQCc22O2fjG-83" vertex="1" connectable="0">
          <mxGeometry x="115.29999999999995" y="87" width="60" height="60" as="geometry" />
        </mxCell>
        <mxCell id="GacyLn4TmJQCc22O2fjG-228" value="" style="ellipse;whiteSpace=wrap;html=1;aspect=fixed;fontSize=30;strokeWidth=1;fillColor=none;gradientColor=none;verticalAlign=middle;" parent="GacyLn4TmJQCc22O2fjG-227" vertex="1">
          <mxGeometry width="57.138503733048736" height="57.138503733048736" as="geometry" />
        </mxCell>
        <mxCell id="GacyLn4TmJQCc22O2fjG-229" value="" style="group;aspect=fixed;" parent="GacyLn4TmJQCc22O2fjG-227" vertex="1" connectable="0">
          <mxGeometry x="1.680544227442615" y="1.68054422744261" width="58.319455772557205" height="58.31945577255738" as="geometry" />
        </mxCell>
        <mxCell id="GacyLn4TmJQCc22O2fjG-230" value="" style="ellipse;whiteSpace=wrap;html=1;aspect=fixed;fontSize=30;gradientColor=none;verticalAlign=middle;perimeterSpacing=0;strokeWidth=5;fillColor=none;strokeColor=#00FF00;" parent="GacyLn4TmJQCc22O2fjG-229" vertex="1">
          <mxGeometry width="53.77741527816352" height="53.77741527816352" as="geometry" />
        </mxCell>
        <mxCell id="GacyLn4TmJQCc22O2fjG-231" value="" style="ellipse;whiteSpace=wrap;html=1;aspect=fixed;fontSize=30;strokeWidth=1;fillColor=none;gradientColor=none;verticalAlign=middle;" parent="GacyLn4TmJQCc22O2fjG-229" vertex="1">
          <mxGeometry x="1.2637692590368395" y="1.263769259036916" width="51.25659893699961" height="51.25659893699961" as="geometry" />
        </mxCell>
        <mxCell id="GacyLn4TmJQCc22O2fjG-232" value="" style="ellipse;whiteSpace=wrap;html=1;aspect=fixed;fontSize=30;strokeColor=#000000;strokeWidth=1;fillColor=none;gradientColor=none;verticalAlign=middle;" parent="GacyLn4TmJQCc22O2fjG-229" vertex="1">
          <mxGeometry x="-2.8066433033673546" y="-2.7975011427700665" width="59.38747523998153" height="59.38747523998153" as="geometry" />
        </mxCell>
        <mxCell id="GacyLn4TmJQCc22O2fjG-233" value="" style="group;aspect=fixed;" parent="GacyLn4TmJQCc22O2fjG-83" vertex="1" connectable="0">
          <mxGeometry x="150.29999999999995" y="50" width="60" height="60" as="geometry" />
        </mxCell>
        <mxCell id="GacyLn4TmJQCc22O2fjG-234" value="" style="ellipse;whiteSpace=wrap;html=1;aspect=fixed;fontSize=30;strokeWidth=1;fillColor=none;gradientColor=none;verticalAlign=middle;" parent="GacyLn4TmJQCc22O2fjG-233" vertex="1">
          <mxGeometry width="57.138503733048736" height="57.138503733048736" as="geometry" />
        </mxCell>
        <mxCell id="GacyLn4TmJQCc22O2fjG-235" value="" style="group;aspect=fixed;" parent="GacyLn4TmJQCc22O2fjG-233" vertex="1" connectable="0">
          <mxGeometry x="1.680544227442615" y="1.68054422744261" width="58.319455772557205" height="58.31945577255738" as="geometry" />
        </mxCell>
        <mxCell id="GacyLn4TmJQCc22O2fjG-236" value="" style="ellipse;whiteSpace=wrap;html=1;aspect=fixed;fontSize=30;gradientColor=none;verticalAlign=middle;perimeterSpacing=0;strokeWidth=5;fillColor=none;strokeColor=#00FF00;" parent="GacyLn4TmJQCc22O2fjG-235" vertex="1">
          <mxGeometry width="53.77741527816352" height="53.77741527816352" as="geometry" />
        </mxCell>
        <mxCell id="GacyLn4TmJQCc22O2fjG-237" value="" style="ellipse;whiteSpace=wrap;html=1;aspect=fixed;fontSize=30;strokeWidth=1;fillColor=none;gradientColor=none;verticalAlign=middle;" parent="GacyLn4TmJQCc22O2fjG-235" vertex="1">
          <mxGeometry x="1.2637692590368395" y="1.263769259036916" width="51.25659893699961" height="51.25659893699961" as="geometry" />
        </mxCell>
        <mxCell id="GacyLn4TmJQCc22O2fjG-238" value="" style="ellipse;whiteSpace=wrap;html=1;aspect=fixed;fontSize=30;strokeColor=#000000;strokeWidth=1;fillColor=none;gradientColor=none;verticalAlign=middle;" parent="GacyLn4TmJQCc22O2fjG-235" vertex="1">
          <mxGeometry x="-2.8066433033673546" y="-2.7975011427700665" width="59.38747523998153" height="59.38747523998153" as="geometry" />
        </mxCell>
        <mxCell id="GacyLn4TmJQCc22O2fjG-239" value="" style="group;aspect=fixed;" parent="GacyLn4TmJQCc22O2fjG-83" vertex="1" connectable="0">
          <mxGeometry x="168" y="96.5" width="60" height="60" as="geometry" />
        </mxCell>
        <mxCell id="GacyLn4TmJQCc22O2fjG-240" value="" style="ellipse;whiteSpace=wrap;html=1;aspect=fixed;fontSize=30;strokeWidth=1;fillColor=none;gradientColor=none;verticalAlign=middle;" parent="GacyLn4TmJQCc22O2fjG-239" vertex="1">
          <mxGeometry width="57.138503733048736" height="57.138503733048736" as="geometry" />
        </mxCell>
        <mxCell id="GacyLn4TmJQCc22O2fjG-241" value="" style="group;aspect=fixed;" parent="GacyLn4TmJQCc22O2fjG-239" vertex="1" connectable="0">
          <mxGeometry x="1.680544227442615" y="1.68054422744261" width="58.319455772557205" height="58.31945577255738" as="geometry" />
        </mxCell>
        <mxCell id="GacyLn4TmJQCc22O2fjG-242" value="" style="ellipse;whiteSpace=wrap;html=1;aspect=fixed;fontSize=30;gradientColor=none;verticalAlign=middle;perimeterSpacing=0;strokeWidth=5;fillColor=none;strokeColor=#00FF00;" parent="GacyLn4TmJQCc22O2fjG-241" vertex="1">
          <mxGeometry width="53.77741527816352" height="53.77741527816352" as="geometry" />
        </mxCell>
        <mxCell id="GacyLn4TmJQCc22O2fjG-243" value="" style="ellipse;whiteSpace=wrap;html=1;aspect=fixed;fontSize=30;strokeWidth=1;fillColor=none;gradientColor=none;verticalAlign=middle;" parent="GacyLn4TmJQCc22O2fjG-241" vertex="1">
          <mxGeometry x="1.2637692590368395" y="1.263769259036916" width="51.25659893699961" height="51.25659893699961" as="geometry" />
        </mxCell>
        <mxCell id="GacyLn4TmJQCc22O2fjG-244" value="" style="ellipse;whiteSpace=wrap;html=1;aspect=fixed;fontSize=30;strokeColor=#000000;strokeWidth=1;fillColor=none;gradientColor=none;verticalAlign=middle;" parent="GacyLn4TmJQCc22O2fjG-241" vertex="1">
          <mxGeometry x="-2.8066433033673546" y="-2.7975011427700665" width="59.38747523998153" height="59.38747523998153" as="geometry" />
        </mxCell>
        <mxCell id="GacyLn4TmJQCc22O2fjG-174" style="edgeStyle=orthogonalEdgeStyle;rounded=1;orthogonalLoop=1;jettySize=auto;html=1;entryX=0.5;entryY=0;entryDx=0;entryDy=0;fontSize=30;strokeWidth=3;shadow=0;" parent="TdoV821Zneaegla7UpCI-16" source="GacyLn4TmJQCc22O2fjG-173" target="GacyLn4TmJQCc22O2fjG-83" edge="1">
          <mxGeometry relative="1" as="geometry" />
        </mxCell>
        <mxCell id="GacyLn4TmJQCc22O2fjG-173" value="&lt;p style=&quot;line-height: 200% ; font-size: 19px&quot;&gt;&lt;span&gt;&lt;b&gt;Drawing ROIs&lt;br&gt;&lt;/b&gt;&lt;/span&gt;&lt;span&gt;on B cells&lt;/span&gt;&lt;/p&gt;" style="rhombus;whiteSpace=wrap;html=1;shadow=1;fillColor=#fff2cc;strokeColor=#994C00;" parent="TdoV821Zneaegla7UpCI-16" vertex="1">
          <mxGeometry x="255.48999999999998" y="530" width="192.48" height="190" as="geometry" />
        </mxCell>
        <mxCell id="GacyLn4TmJQCc22O2fjG-197" value="" style="group;aspect=fixed;" parent="TdoV821Zneaegla7UpCI-16" vertex="1" connectable="0">
          <mxGeometry x="327.51" y="790" width="60" height="60" as="geometry" />
        </mxCell>
        <mxCell id="GacyLn4TmJQCc22O2fjG-198" value="" style="ellipse;whiteSpace=wrap;html=1;aspect=fixed;fontSize=30;strokeWidth=1;fillColor=none;gradientColor=none;verticalAlign=middle;" parent="GacyLn4TmJQCc22O2fjG-197" vertex="1">
          <mxGeometry width="57.138503733048736" height="57.138503733048736" as="geometry" />
        </mxCell>
        <mxCell id="GacyLn4TmJQCc22O2fjG-199" value="" style="group;aspect=fixed;" parent="GacyLn4TmJQCc22O2fjG-197" vertex="1" connectable="0">
          <mxGeometry x="1.680544227442615" y="1.68054422744261" width="58.319455772557205" height="58.31945577255738" as="geometry" />
        </mxCell>
        <mxCell id="GacyLn4TmJQCc22O2fjG-200" value="" style="ellipse;whiteSpace=wrap;html=1;aspect=fixed;fontSize=30;gradientColor=none;verticalAlign=middle;perimeterSpacing=0;strokeWidth=5;fillColor=none;strokeColor=#00FF00;" parent="GacyLn4TmJQCc22O2fjG-199" vertex="1">
          <mxGeometry width="53.77741527816352" height="53.77741527816352" as="geometry" />
        </mxCell>
        <mxCell id="GacyLn4TmJQCc22O2fjG-201" value="" style="ellipse;whiteSpace=wrap;html=1;aspect=fixed;fontSize=30;strokeWidth=1;fillColor=none;gradientColor=none;verticalAlign=middle;" parent="GacyLn4TmJQCc22O2fjG-199" vertex="1">
          <mxGeometry x="1.2637692590368395" y="1.263769259036916" width="51.25659893699961" height="51.25659893699961" as="geometry" />
        </mxCell>
        <mxCell id="GacyLn4TmJQCc22O2fjG-202" value="" style="ellipse;whiteSpace=wrap;html=1;aspect=fixed;fontSize=30;strokeColor=#000000;strokeWidth=1;fillColor=none;gradientColor=none;verticalAlign=middle;" parent="GacyLn4TmJQCc22O2fjG-199" vertex="1">
          <mxGeometry x="-2.8066433033673546" y="-2.7975011427700665" width="59.38747523998153" height="59.38747523998153" as="geometry" />
        </mxCell>
        <mxCell id="GacyLn4TmJQCc22O2fjG-209" value="" style="group;aspect=fixed;" parent="TdoV821Zneaegla7UpCI-16" vertex="1" connectable="0">
          <mxGeometry x="263.46" y="915" width="60" height="60" as="geometry" />
        </mxCell>
        <mxCell id="GacyLn4TmJQCc22O2fjG-210" value="" style="ellipse;whiteSpace=wrap;html=1;aspect=fixed;fontSize=30;strokeWidth=1;fillColor=none;gradientColor=none;verticalAlign=middle;" parent="GacyLn4TmJQCc22O2fjG-209" vertex="1">
          <mxGeometry width="57.138503733048736" height="57.138503733048736" as="geometry" />
        </mxCell>
        <mxCell id="GacyLn4TmJQCc22O2fjG-211" value="" style="group;aspect=fixed;" parent="GacyLn4TmJQCc22O2fjG-209" vertex="1" connectable="0">
          <mxGeometry x="1.680544227442615" y="1.68054422744261" width="58.319455772557205" height="58.31945577255738" as="geometry" />
        </mxCell>
        <mxCell id="GacyLn4TmJQCc22O2fjG-212" value="" style="ellipse;whiteSpace=wrap;html=1;aspect=fixed;fontSize=30;gradientColor=none;verticalAlign=middle;perimeterSpacing=0;strokeWidth=5;fillColor=none;strokeColor=#00FF00;" parent="GacyLn4TmJQCc22O2fjG-211" vertex="1">
          <mxGeometry width="53.77741527816352" height="53.77741527816352" as="geometry" />
        </mxCell>
        <mxCell id="GacyLn4TmJQCc22O2fjG-213" value="" style="ellipse;whiteSpace=wrap;html=1;aspect=fixed;fontSize=30;strokeWidth=1;fillColor=none;gradientColor=none;verticalAlign=middle;" parent="GacyLn4TmJQCc22O2fjG-211" vertex="1">
          <mxGeometry x="1.2637692590368395" y="1.263769259036916" width="51.25659893699961" height="51.25659893699961" as="geometry" />
        </mxCell>
        <mxCell id="GacyLn4TmJQCc22O2fjG-214" value="" style="ellipse;whiteSpace=wrap;html=1;aspect=fixed;fontSize=30;strokeColor=#000000;strokeWidth=1;fillColor=none;gradientColor=none;verticalAlign=middle;" parent="GacyLn4TmJQCc22O2fjG-211" vertex="1">
          <mxGeometry x="-2.8066433033673546" y="-2.7975011427700665" width="59.38747523998153" height="59.38747523998153" as="geometry" />
        </mxCell>
        <mxCell id="TdoV821Zneaegla7UpCI-25" value="&lt;font style=&quot;font-size: 14px&quot;&gt;Condition_ measurement&lt;br&gt;.xlsx&lt;/font&gt;" style="shape=note;whiteSpace=wrap;html=1;backgroundOutline=1;darkOpacity=0.05;rounded=1;shadow=1;glass=0;sketch=1;fontSize=17;strokeColor=#82b366;fillColor=#d5e8d4;gradientColor=#ffffff;" parent="1" vertex="1">
          <mxGeometry x="421.3700000000001" y="2240" width="97.25" height="130" as="geometry" />
        </mxCell>
        <mxCell id="TdoV821Zneaegla7UpCI-62" style="edgeStyle=orthogonalEdgeStyle;orthogonalLoop=1;jettySize=auto;html=1;entryX=1;entryY=0.5;entryDx=0;entryDy=0;fontSize=16;fontColor=#FFFFFF;strokeWidth=2;sketch=0;shadow=0;rounded=1;" parent="1" source="TdoV821Zneaegla7UpCI-61" target="TdoV821Zneaegla7UpCI-22" edge="1">
          <mxGeometry relative="1" as="geometry" />
        </mxCell>
        <mxCell id="TdoV821Zneaegla7UpCI-61" value="&lt;font style=&quot;font-size: 14px&quot;&gt;Brightfield tracking settings.file&lt;/font&gt;" style="shape=note;whiteSpace=wrap;html=1;backgroundOutline=1;darkOpacity=0.05;rounded=1;shadow=1;glass=0;sketch=1;fontSize=17;" parent="1" vertex="1">
          <mxGeometry x="934.52" y="1830" width="97.25" height="130" as="geometry" />
        </mxCell>
        <mxCell id="TdoV821Zneaegla7UpCI-327" style="edgeStyle=orthogonalEdgeStyle;sketch=0;jumpStyle=arc;jumpSize=6;orthogonalLoop=1;jettySize=auto;html=1;entryX=1;entryY=0.5;entryDx=0;entryDy=0;shadow=0;fontSize=20;fontColor=#FFFFFF;startArrow=none;startFill=0;strokeWidth=2;rounded=1;" parent="1" source="TdoV821Zneaegla7UpCI-63" target="TdoV821Zneaegla7UpCI-22" edge="1">
          <mxGeometry relative="1" as="geometry" />
        </mxCell>
        <mxCell id="TdoV821Zneaegla7UpCI-63" value="&lt;font style=&quot;font-size: 14px&quot;&gt;IRM tracking settings.file&lt;/font&gt;" style="shape=note;whiteSpace=wrap;html=1;backgroundOutline=1;darkOpacity=0.05;rounded=1;shadow=1;glass=0;sketch=1;fontSize=17;" parent="1" vertex="1">
          <mxGeometry x="934.52" y="1550" width="97.25" height="130" as="geometry" />
        </mxCell>
        <mxCell id="TdoV821Zneaegla7UpCI-105" value="" style="swimlane;fontStyle=0;childLayout=stackLayout;horizontal=1;startSize=26;fillColor=none;horizontalStack=0;resizeParent=1;resizeParentMax=0;resizeLast=0;collapsible=1;marginBottom=0;rounded=1;shadow=0;glass=0;sketch=0;fontSize=16;fontColor=#FFFFFF;strokeWidth=1;html=1;swimlaneLine=0;strokeColor=none;" parent="1" vertex="1">
          <mxGeometry x="670" y="-90" width="140" height="104" as="geometry" />
        </mxCell>
        <mxCell id="TdoV821Zneaegla7UpCI-106" value="Channel 0 = IRM " style="text;fillColor=default;align=left;verticalAlign=top;spacingLeft=4;spacingRight=4;overflow=hidden;rotatable=0;points=[[0,0.5],[1,0.5]];portConstraint=eastwest;rounded=1;strokeColor=#000000;" parent="TdoV821Zneaegla7UpCI-105" vertex="1">
          <mxGeometry y="26" width="140" height="26" as="geometry" />
        </mxCell>
        <mxCell id="TdoV821Zneaegla7UpCI-107" value="Channel 1 = Calcium" style="text;fillColor=default;align=left;verticalAlign=top;spacingLeft=4;spacingRight=4;overflow=hidden;rotatable=0;points=[[0,0.5],[1,0.5]];portConstraint=eastwest;strokeColor=#000000;rounded=1;" parent="TdoV821Zneaegla7UpCI-105" vertex="1">
          <mxGeometry y="52" width="140" height="26" as="geometry" />
        </mxCell>
        <mxCell id="TdoV821Zneaegla7UpCI-108" value="Channel 2 = Brightfield" style="text;fillColor=default;align=left;verticalAlign=top;spacingLeft=4;spacingRight=4;overflow=hidden;rotatable=0;points=[[0,0.5],[1,0.5]];portConstraint=eastwest;strokeColor=#000000;rounded=1;" parent="TdoV821Zneaegla7UpCI-105" vertex="1">
          <mxGeometry y="78" width="140" height="26" as="geometry" />
        </mxCell>
        <mxCell id="TdoV821Zneaegla7UpCI-124" value="" style="line;strokeWidth=1;fillColor=none;align=left;verticalAlign=middle;spacingTop=-1;spacingLeft=3;spacingRight=3;rotatable=0;labelPosition=right;points=[];portConstraint=eastwest;rounded=1;shadow=0;glass=0;fontSize=16;fontColor=#FFFFFF;html=1;sketch=1;" parent="1" vertex="1">
          <mxGeometry x="430" y="-20" width="230" height="11" as="geometry" />
        </mxCell>
        <mxCell id="TdoV821Zneaegla7UpCI-137" value="" style="ellipse;whiteSpace=wrap;html=1;strokeWidth=2;fillWeight=2;hachureGap=8;fillStyle=dots;sketch=1;fontColor=#333333;shadow=0;fillColor=none;strokeColor=#333333;" parent="1" vertex="1">
          <mxGeometry x="455" y="-200" width="30" height="30" as="geometry" />
        </mxCell>
        <mxCell id="TdoV821Zneaegla7UpCI-138" value="" style="ellipse;whiteSpace=wrap;html=1;strokeWidth=2;fillWeight=2;hachureGap=8;fillStyle=solid;sketch=1;fontColor=#333333;shadow=0;fillColor=#CCCCCC;strokeColor=#CCCCCC;" parent="1" vertex="1">
          <mxGeometry x="465.75" y="-190" width="8.5" height="10" as="geometry" />
        </mxCell>
        <mxCell id="TdoV821Zneaegla7UpCI-139" value="" style="ellipse;whiteSpace=wrap;html=1;strokeWidth=0;fillWeight=2;hachureGap=8;fillStyle=zigzag;sketch=1;fontColor=#333333;shadow=0;fillColor=#FF0000;strokeColor=none;" parent="1" vertex="1">
          <mxGeometry x="455" y="-200" width="30" height="30" as="geometry" />
        </mxCell>
        <mxCell id="TdoV821Zneaegla7UpCI-162" value="IndividualConditionFFC.tif" style="swimlane;startSize=23;shadow=0;sketch=0;swimlaneFillColor=default;" parent="1" vertex="1">
          <mxGeometry x="429.99" y="330" width="230" height="255" as="geometry" />
        </mxCell>
        <mxCell id="TdoV821Zneaegla7UpCI-163" value="" style="line;strokeWidth=7;fillColor=none;align=left;verticalAlign=middle;spacingTop=-1;spacingLeft=3;spacingRight=3;rotatable=0;labelPosition=right;points=[];portConstraint=eastwest;rounded=1;shadow=0;glass=0;fontSize=16;fontColor=#FFFFFF;html=1;sketch=0;opacity=30;perimeterSpacing=2;" parent="TdoV821Zneaegla7UpCI-162" vertex="1">
          <mxGeometry x="40" y="235" width="160" height="11" as="geometry" />
        </mxCell>
        <mxCell id="TdoV821Zneaegla7UpCI-164" value="" style="ellipse;whiteSpace=wrap;html=1;aspect=fixed;rounded=1;shadow=0;glass=0;fontSize=16;fontColor=#FFFFFF;strokeColor=#000000;strokeWidth=1;fillColor=#CCCCCC;gradientColor=none;gradientDirection=south;" parent="TdoV821Zneaegla7UpCI-162" vertex="1">
          <mxGeometry x="30.000000000000004" y="235" width="10" height="10" as="geometry" />
        </mxCell>
        <mxCell id="TdoV821Zneaegla7UpCI-165" value="&lt;font color=&quot;#000000&quot; style=&quot;font-size: 10px;&quot;&gt;T 0&lt;/font&gt;" style="text;html=1;strokeColor=none;fillColor=none;align=center;verticalAlign=middle;whiteSpace=wrap;rounded=0;shadow=0;glass=0;fontSize=10;fontColor=#FFFFFF;" parent="TdoV821Zneaegla7UpCI-162" vertex="1">
          <mxGeometry y="230" width="40" height="20" as="geometry" />
        </mxCell>
        <mxCell id="TdoV821Zneaegla7UpCI-166" value="&lt;font color=&quot;#000000&quot; style=&quot;font-size: 10px&quot;&gt;99&lt;/font&gt;" style="text;html=1;strokeColor=none;fillColor=none;align=center;verticalAlign=middle;whiteSpace=wrap;rounded=0;shadow=0;glass=0;fontSize=10;fontColor=#FFFFFF;" parent="TdoV821Zneaegla7UpCI-162" vertex="1">
          <mxGeometry x="190" y="230" width="40" height="20" as="geometry" />
        </mxCell>
        <mxCell id="TdoV821Zneaegla7UpCI-167" value="" style="ellipse;whiteSpace=wrap;html=1;strokeWidth=2;fillWeight=2;hachureGap=8;fillStyle=dots;sketch=1;fontColor=#333333;shadow=0;fillColor=none;strokeColor=#333333;" parent="TdoV821Zneaegla7UpCI-162" vertex="1">
          <mxGeometry x="150" y="160" width="30" height="30" as="geometry" />
        </mxCell>
        <mxCell id="TdoV821Zneaegla7UpCI-168" value="" style="ellipse;whiteSpace=wrap;html=1;strokeWidth=2;fillWeight=2;hachureGap=8;fillStyle=solid;sketch=1;fontColor=#333333;shadow=0;fillColor=#808080;strokeColor=#808080;" parent="TdoV821Zneaegla7UpCI-162" vertex="1">
          <mxGeometry x="160.75" y="170" width="8.5" height="10" as="geometry" />
        </mxCell>
        <mxCell id="TdoV821Zneaegla7UpCI-169" value="" style="ellipse;whiteSpace=wrap;html=1;strokeWidth=0;fillWeight=2;hachureGap=8;fillStyle=zigzag;sketch=1;fontColor=#333333;shadow=0;fillColor=#FF0000;strokeColor=none;" parent="TdoV821Zneaegla7UpCI-162" vertex="1">
          <mxGeometry x="150" y="160" width="30" height="30" as="geometry" />
        </mxCell>
        <mxCell id="TdoV821Zneaegla7UpCI-171" value="" style="ellipse;whiteSpace=wrap;html=1;strokeWidth=2;fillWeight=2;hachureGap=8;fillStyle=dots;sketch=1;fontColor=#333333;shadow=0;fillColor=none;strokeColor=#333333;" parent="TdoV821Zneaegla7UpCI-162" vertex="1">
          <mxGeometry x="29.25" y="40" width="30" height="30" as="geometry" />
        </mxCell>
        <mxCell id="TdoV821Zneaegla7UpCI-172" value="" style="ellipse;whiteSpace=wrap;html=1;strokeWidth=2;fillWeight=2;hachureGap=8;fillStyle=solid;sketch=1;fontColor=#333333;shadow=0;fillColor=#808080;strokeColor=#808080;" parent="TdoV821Zneaegla7UpCI-162" vertex="1">
          <mxGeometry x="40" y="50" width="8.5" height="10" as="geometry" />
        </mxCell>
        <mxCell id="TdoV821Zneaegla7UpCI-173" value="" style="ellipse;whiteSpace=wrap;html=1;strokeWidth=0;fillWeight=2;hachureGap=8;fillStyle=zigzag;sketch=1;fontColor=#333333;shadow=0;fillColor=#FF0000;strokeColor=none;" parent="TdoV821Zneaegla7UpCI-162" vertex="1">
          <mxGeometry x="29.25" y="40" width="30" height="30" as="geometry" />
        </mxCell>
        <mxCell id="TdoV821Zneaegla7UpCI-170" value="" style="line;strokeWidth=1;fillColor=none;align=left;verticalAlign=middle;spacingTop=-1;spacingLeft=3;spacingRight=3;rotatable=0;labelPosition=right;points=[];portConstraint=eastwest;rounded=1;shadow=0;glass=0;fontSize=16;fontColor=#FFFFFF;html=1;sketch=1;" parent="1" vertex="1">
          <mxGeometry x="430" y="550" width="230" height="11" as="geometry" />
        </mxCell>
        <mxCell id="TdoV821Zneaegla7UpCI-222" value="&lt;font style=&quot;font-size: 13px&quot;&gt;ImageJ Pseudo-Flat-Field correction.ijm&lt;/font&gt;" style="shape=note;whiteSpace=wrap;html=1;backgroundOutline=1;darkOpacity=0.05;rounded=1;shadow=1;glass=0;sketch=1;fontSize=17;strokeColor=#6c8ebf;fillColor=#C9D6E8;gradientColor=#FFFFFF;" parent="1" vertex="1">
          <mxGeometry x="934.52" y="97.5" width="107.25" height="145" as="geometry" />
        </mxCell>
        <mxCell id="TdoV821Zneaegla7UpCI-333" style="edgeStyle=orthogonalEdgeStyle;rounded=1;sketch=0;jumpStyle=arc;jumpSize=6;orthogonalLoop=1;jettySize=auto;html=1;shadow=0;fontSize=18;fontColor=#FFFFFF;startArrow=classic;startFill=1;strokeWidth=2;" parent="1" edge="1">
          <mxGeometry relative="1" as="geometry">
            <mxPoint x="660" y="995" as="targetPoint" />
            <mxPoint x="932.52" y="994.5" as="sourcePoint" />
            <Array as="points">
              <mxPoint x="815" y="995" />
              <mxPoint x="697" y="995" />
            </Array>
          </mxGeometry>
        </mxCell>
        <mxCell id="TdoV821Zneaegla7UpCI-332" value="&lt;font style=&quot;font-size: 14px&quot;&gt;Individual Condition FFC.xml&lt;/font&gt;" style="shape=note;whiteSpace=wrap;html=1;backgroundOutline=1;darkOpacity=0.05;rounded=1;shadow=1;glass=0;sketch=1;fontSize=17;gradientDirection=east;fillColor=#d5e8d4;strokeColor=#82b366;gradientColor=#97d077;" parent="1" vertex="1">
          <mxGeometry x="934.52" y="929.5" width="97.25" height="130" as="geometry" />
        </mxCell>
        <mxCell id="GacyLn4TmJQCc22O2fjG-177" style="edgeStyle=orthogonalEdgeStyle;rounded=1;sketch=0;orthogonalLoop=1;jettySize=auto;html=1;fontSize=30;strokeWidth=2;shadow=0;" parent="1" edge="1">
          <mxGeometry relative="1" as="geometry">
            <Array as="points">
              <mxPoint x="689" y="2093" />
              <mxPoint x="689" y="2179" />
              <mxPoint x="470" y="2179" />
            </Array>
            <mxPoint x="675.23" y="2093" as="sourcePoint" />
            <mxPoint x="470.0000000000001" y="2239" as="targetPoint" />
          </mxGeometry>
        </mxCell>
        <mxCell id="GacyLn4TmJQCc22O2fjG-178" style="edgeStyle=orthogonalEdgeStyle;rounded=1;sketch=0;orthogonalLoop=1;jettySize=auto;html=1;fontSize=30;strokeWidth=2;shadow=0;endArrow=classic;endFill=1;entryX=0.501;entryY=-0.007;entryDx=0;entryDy=0;entryPerimeter=0;" parent="1" target="TdoV821Zneaegla7UpCI-25" edge="1">
          <mxGeometry relative="1" as="geometry">
            <Array as="points">
              <mxPoint x="689" y="2118" />
              <mxPoint x="689" y="2178" />
              <mxPoint x="470" y="2178" />
            </Array>
            <mxPoint x="675.23" y="2118.0000000000005" as="sourcePoint" />
            <mxPoint x="470" y="2238" as="targetPoint" />
          </mxGeometry>
        </mxCell>
        <mxCell id="GacyLn4TmJQCc22O2fjG-190" value="" style="group;aspect=fixed;" parent="1" vertex="1" connectable="0">
          <mxGeometry x="440" y="1400" width="60" height="60" as="geometry" />
        </mxCell>
        <mxCell id="GacyLn4TmJQCc22O2fjG-191" value="" style="ellipse;whiteSpace=wrap;html=1;aspect=fixed;fontSize=30;strokeWidth=1;fillColor=none;gradientColor=none;verticalAlign=middle;" parent="GacyLn4TmJQCc22O2fjG-190" vertex="1">
          <mxGeometry width="57.138503733048736" height="57.138503733048736" as="geometry" />
        </mxCell>
        <mxCell id="GacyLn4TmJQCc22O2fjG-192" value="" style="group;aspect=fixed;" parent="GacyLn4TmJQCc22O2fjG-190" vertex="1" connectable="0">
          <mxGeometry x="1.680544227442615" y="1.68054422744261" width="58.319455772557205" height="58.31945577255738" as="geometry" />
        </mxCell>
        <mxCell id="GacyLn4TmJQCc22O2fjG-193" value="" style="ellipse;whiteSpace=wrap;html=1;aspect=fixed;fontSize=30;gradientColor=none;verticalAlign=middle;perimeterSpacing=0;strokeWidth=5;fillColor=none;strokeColor=#00FF00;" parent="GacyLn4TmJQCc22O2fjG-192" vertex="1">
          <mxGeometry width="53.77741527816352" height="53.77741527816352" as="geometry" />
        </mxCell>
        <mxCell id="GacyLn4TmJQCc22O2fjG-194" value="" style="ellipse;whiteSpace=wrap;html=1;aspect=fixed;fontSize=30;strokeWidth=1;fillColor=none;gradientColor=none;verticalAlign=middle;" parent="GacyLn4TmJQCc22O2fjG-192" vertex="1">
          <mxGeometry x="1.2637692590368395" y="1.263769259036916" width="51.25659893699961" height="51.25659893699961" as="geometry" />
        </mxCell>
        <mxCell id="GacyLn4TmJQCc22O2fjG-195" value="" style="ellipse;whiteSpace=wrap;html=1;aspect=fixed;fontSize=30;strokeColor=#000000;strokeWidth=1;fillColor=none;gradientColor=none;verticalAlign=middle;" parent="GacyLn4TmJQCc22O2fjG-192" vertex="1">
          <mxGeometry x="-2.8066433033673546" y="-2.7975011427700665" width="59.38747523998153" height="59.38747523998153" as="geometry" />
        </mxCell>
        <mxCell id="GacyLn4TmJQCc22O2fjG-203" value="" style="group;aspect=fixed;" parent="1" vertex="1" connectable="0">
          <mxGeometry x="440" y="1480" width="60" height="60" as="geometry" />
        </mxCell>
        <mxCell id="GacyLn4TmJQCc22O2fjG-204" value="" style="ellipse;whiteSpace=wrap;html=1;aspect=fixed;fontSize=30;strokeWidth=1;fillColor=none;gradientColor=none;verticalAlign=middle;" parent="GacyLn4TmJQCc22O2fjG-203" vertex="1">
          <mxGeometry width="57.138503733048736" height="57.138503733048736" as="geometry" />
        </mxCell>
        <mxCell id="GacyLn4TmJQCc22O2fjG-205" value="" style="group;aspect=fixed;" parent="GacyLn4TmJQCc22O2fjG-203" vertex="1" connectable="0">
          <mxGeometry x="1.680544227442615" y="1.68054422744261" width="58.319455772557205" height="58.31945577255738" as="geometry" />
        </mxCell>
        <mxCell id="GacyLn4TmJQCc22O2fjG-206" value="" style="ellipse;whiteSpace=wrap;html=1;aspect=fixed;fontSize=30;gradientColor=none;verticalAlign=middle;perimeterSpacing=0;strokeWidth=5;fillColor=none;strokeColor=#00FF00;" parent="GacyLn4TmJQCc22O2fjG-205" vertex="1">
          <mxGeometry width="53.77741527816352" height="53.77741527816352" as="geometry" />
        </mxCell>
        <mxCell id="GacyLn4TmJQCc22O2fjG-207" value="" style="ellipse;whiteSpace=wrap;html=1;aspect=fixed;fontSize=30;strokeWidth=1;fillColor=none;gradientColor=none;verticalAlign=middle;" parent="GacyLn4TmJQCc22O2fjG-205" vertex="1">
          <mxGeometry x="1.2637692590368395" y="1.263769259036916" width="51.25659893699961" height="51.25659893699961" as="geometry" />
        </mxCell>
        <mxCell id="GacyLn4TmJQCc22O2fjG-208" value="" style="ellipse;whiteSpace=wrap;html=1;aspect=fixed;fontSize=30;strokeColor=#000000;strokeWidth=1;fillColor=none;gradientColor=none;verticalAlign=middle;" parent="GacyLn4TmJQCc22O2fjG-205" vertex="1">
          <mxGeometry x="-2.8066433033673546" y="-2.7975011427700665" width="59.38747523998153" height="59.38747523998153" as="geometry" />
        </mxCell>
        <mxCell id="GacyLn4TmJQCc22O2fjG-221" value="" style="group;aspect=fixed;" parent="1" vertex="1" connectable="0">
          <mxGeometry x="500" y="1455.63" width="60" height="60" as="geometry" />
        </mxCell>
        <mxCell id="GacyLn4TmJQCc22O2fjG-222" value="" style="ellipse;whiteSpace=wrap;html=1;aspect=fixed;fontSize=30;strokeWidth=1;fillColor=none;gradientColor=none;verticalAlign=middle;" parent="GacyLn4TmJQCc22O2fjG-221" vertex="1">
          <mxGeometry width="57.138503733048736" height="57.138503733048736" as="geometry" />
        </mxCell>
        <mxCell id="GacyLn4TmJQCc22O2fjG-223" value="" style="group;aspect=fixed;" parent="GacyLn4TmJQCc22O2fjG-221" vertex="1" connectable="0">
          <mxGeometry x="1.680544227442615" y="1.68054422744261" width="58.319455772557205" height="58.31945577255738" as="geometry" />
        </mxCell>
        <mxCell id="GacyLn4TmJQCc22O2fjG-224" value="" style="ellipse;whiteSpace=wrap;html=1;aspect=fixed;fontSize=30;gradientColor=none;verticalAlign=middle;perimeterSpacing=0;strokeWidth=5;fillColor=none;strokeColor=#00FF00;" parent="GacyLn4TmJQCc22O2fjG-223" vertex="1">
          <mxGeometry width="53.77741527816352" height="53.77741527816352" as="geometry" />
        </mxCell>
        <mxCell id="GacyLn4TmJQCc22O2fjG-225" value="" style="ellipse;whiteSpace=wrap;html=1;aspect=fixed;fontSize=30;strokeWidth=1;fillColor=none;gradientColor=none;verticalAlign=middle;" parent="GacyLn4TmJQCc22O2fjG-223" vertex="1">
          <mxGeometry x="1.2637692590368395" y="1.263769259036916" width="51.25659893699961" height="51.25659893699961" as="geometry" />
        </mxCell>
        <mxCell id="GacyLn4TmJQCc22O2fjG-226" value="" style="ellipse;whiteSpace=wrap;html=1;aspect=fixed;fontSize=30;strokeColor=#000000;strokeWidth=1;fillColor=none;gradientColor=none;verticalAlign=middle;" parent="GacyLn4TmJQCc22O2fjG-223" vertex="1">
          <mxGeometry x="-2.8066433033673546" y="-2.7975011427700665" width="59.38747523998153" height="59.38747523998153" as="geometry" />
        </mxCell>
        <mxCell id="GacyLn4TmJQCc22O2fjG-245" value="" style="group;aspect=fixed;" parent="1" vertex="1" connectable="0">
          <mxGeometry x="560" y="1500" width="60" height="60" as="geometry" />
        </mxCell>
        <mxCell id="GacyLn4TmJQCc22O2fjG-246" value="" style="ellipse;whiteSpace=wrap;html=1;aspect=fixed;fontSize=30;strokeWidth=1;fillColor=none;gradientColor=none;verticalAlign=middle;" parent="GacyLn4TmJQCc22O2fjG-245" vertex="1">
          <mxGeometry width="57.138503733048736" height="57.138503733048736" as="geometry" />
        </mxCell>
        <mxCell id="GacyLn4TmJQCc22O2fjG-247" value="" style="group;aspect=fixed;" parent="GacyLn4TmJQCc22O2fjG-245" vertex="1" connectable="0">
          <mxGeometry x="1.680544227442615" y="1.68054422744261" width="58.319455772557205" height="58.31945577255738" as="geometry" />
        </mxCell>
        <mxCell id="GacyLn4TmJQCc22O2fjG-248" value="" style="ellipse;whiteSpace=wrap;html=1;aspect=fixed;fontSize=30;gradientColor=none;verticalAlign=middle;perimeterSpacing=0;strokeWidth=5;fillColor=none;strokeColor=#00FF00;" parent="GacyLn4TmJQCc22O2fjG-247" vertex="1">
          <mxGeometry width="53.77741527816352" height="53.77741527816352" as="geometry" />
        </mxCell>
        <mxCell id="GacyLn4TmJQCc22O2fjG-249" value="" style="ellipse;whiteSpace=wrap;html=1;aspect=fixed;fontSize=30;strokeWidth=1;fillColor=none;gradientColor=none;verticalAlign=middle;" parent="GacyLn4TmJQCc22O2fjG-247" vertex="1">
          <mxGeometry x="1.2637692590368395" y="1.263769259036916" width="51.25659893699961" height="51.25659893699961" as="geometry" />
        </mxCell>
        <mxCell id="GacyLn4TmJQCc22O2fjG-250" value="" style="ellipse;whiteSpace=wrap;html=1;aspect=fixed;fontSize=30;strokeColor=#000000;strokeWidth=1;fillColor=none;gradientColor=none;verticalAlign=middle;" parent="GacyLn4TmJQCc22O2fjG-247" vertex="1">
          <mxGeometry x="-2.8066433033673546" y="-2.7975011427700665" width="59.38747523998153" height="59.38747523998153" as="geometry" />
        </mxCell>
        <mxCell id="GacyLn4TmJQCc22O2fjG-251" value="" style="group;aspect=fixed;" parent="1" vertex="1" connectable="0">
          <mxGeometry x="525.85" y="1535" width="60" height="60" as="geometry" />
        </mxCell>
        <mxCell id="GacyLn4TmJQCc22O2fjG-252" value="" style="ellipse;whiteSpace=wrap;html=1;aspect=fixed;fontSize=30;strokeWidth=1;fillColor=none;gradientColor=none;verticalAlign=middle;" parent="GacyLn4TmJQCc22O2fjG-251" vertex="1">
          <mxGeometry width="57.138503733048736" height="57.138503733048736" as="geometry" />
        </mxCell>
        <mxCell id="GacyLn4TmJQCc22O2fjG-253" value="" style="group;aspect=fixed;" parent="GacyLn4TmJQCc22O2fjG-251" vertex="1" connectable="0">
          <mxGeometry x="1.680544227442615" y="1.68054422744261" width="58.319455772557205" height="58.31945577255738" as="geometry" />
        </mxCell>
        <mxCell id="GacyLn4TmJQCc22O2fjG-254" value="" style="ellipse;whiteSpace=wrap;html=1;aspect=fixed;fontSize=30;gradientColor=none;verticalAlign=middle;perimeterSpacing=0;strokeWidth=5;fillColor=none;strokeColor=#00FF00;" parent="GacyLn4TmJQCc22O2fjG-253" vertex="1">
          <mxGeometry width="53.77741527816352" height="53.77741527816352" as="geometry" />
        </mxCell>
        <mxCell id="GacyLn4TmJQCc22O2fjG-255" value="" style="ellipse;whiteSpace=wrap;html=1;aspect=fixed;fontSize=30;strokeWidth=1;fillColor=none;gradientColor=none;verticalAlign=middle;" parent="GacyLn4TmJQCc22O2fjG-253" vertex="1">
          <mxGeometry x="1.2637692590368395" y="1.263769259036916" width="51.25659893699961" height="51.25659893699961" as="geometry" />
        </mxCell>
        <mxCell id="GacyLn4TmJQCc22O2fjG-256" value="" style="ellipse;whiteSpace=wrap;html=1;aspect=fixed;fontSize=30;strokeColor=#000000;strokeWidth=1;fillColor=none;gradientColor=none;verticalAlign=middle;" parent="GacyLn4TmJQCc22O2fjG-253" vertex="1">
          <mxGeometry x="-2.8066433033673546" y="-2.7975011427700665" width="59.38747523998153" height="59.38747523998153" as="geometry" />
        </mxCell>
        <mxCell id="GacyLn4TmJQCc22O2fjG-257" value="" style="group;aspect=fixed;" parent="1" vertex="1" connectable="0">
          <mxGeometry x="593.99" y="1535" width="60" height="60" as="geometry" />
        </mxCell>
        <mxCell id="GacyLn4TmJQCc22O2fjG-258" value="" style="ellipse;whiteSpace=wrap;html=1;aspect=fixed;fontSize=30;strokeWidth=1;fillColor=none;gradientColor=none;verticalAlign=middle;" parent="GacyLn4TmJQCc22O2fjG-257" vertex="1">
          <mxGeometry width="57.138503733048736" height="57.138503733048736" as="geometry" />
        </mxCell>
        <mxCell id="GacyLn4TmJQCc22O2fjG-259" value="" style="group;aspect=fixed;" parent="GacyLn4TmJQCc22O2fjG-257" vertex="1" connectable="0">
          <mxGeometry x="1.680544227442615" y="1.68054422744261" width="58.319455772557205" height="58.31945577255738" as="geometry" />
        </mxCell>
        <mxCell id="GacyLn4TmJQCc22O2fjG-260" value="" style="ellipse;whiteSpace=wrap;html=1;aspect=fixed;fontSize=30;gradientColor=none;verticalAlign=middle;perimeterSpacing=0;strokeWidth=5;fillColor=none;strokeColor=#00FF00;" parent="GacyLn4TmJQCc22O2fjG-259" vertex="1">
          <mxGeometry width="53.77741527816352" height="53.77741527816352" as="geometry" />
        </mxCell>
        <mxCell id="GacyLn4TmJQCc22O2fjG-261" value="" style="ellipse;whiteSpace=wrap;html=1;aspect=fixed;fontSize=30;strokeWidth=1;fillColor=none;gradientColor=none;verticalAlign=middle;" parent="GacyLn4TmJQCc22O2fjG-259" vertex="1">
          <mxGeometry x="1.2637692590368395" y="1.263769259036916" width="51.25659893699961" height="51.25659893699961" as="geometry" />
        </mxCell>
        <mxCell id="GacyLn4TmJQCc22O2fjG-262" value="" style="ellipse;whiteSpace=wrap;html=1;aspect=fixed;fontSize=30;strokeColor=#000000;strokeWidth=1;fillColor=none;gradientColor=none;verticalAlign=middle;" parent="GacyLn4TmJQCc22O2fjG-259" vertex="1">
          <mxGeometry x="-2.8066433033673546" y="-2.7975011427700665" width="59.38747523998153" height="59.38747523998153" as="geometry" />
        </mxCell>
        <mxCell id="GacyLn4TmJQCc22O2fjG-263" style="edgeStyle=orthogonalEdgeStyle;rounded=1;sketch=0;orthogonalLoop=1;jettySize=auto;html=1;fontSize=30;strokeWidth=2;entryX=0.997;entryY=0.496;entryDx=0;entryDy=0;entryPerimeter=0;shadow=0;exitX=1;exitY=0.5;exitDx=0;exitDy=0;endArrow=classic;endFill=1;startArrow=classic;startFill=1;" parent="1" edge="1">
          <mxGeometry relative="1" as="geometry">
            <mxPoint x="1034.47825" y="993.98" as="targetPoint" />
            <Array as="points">
              <mxPoint x="1073" y="1497" />
              <mxPoint x="1073" y="994" />
            </Array>
            <mxPoint x="659.7" y="1497.5" as="sourcePoint" />
          </mxGeometry>
        </mxCell>
        <mxCell id="rIBwlJK8sZ1EmmgVBHIW-2" style="edgeStyle=orthogonalEdgeStyle;rounded=1;orthogonalLoop=1;jettySize=auto;html=1;entryX=1;entryY=0.5;entryDx=0;entryDy=0;strokeWidth=2;shadow=0;jumpStyle=arc;sketch=0;" parent="1" source="rIBwlJK8sZ1EmmgVBHIW-1" target="GacyLn4TmJQCc22O2fjG-173" edge="1">
          <mxGeometry relative="1" as="geometry" />
        </mxCell>
        <mxCell id="rIBwlJK8sZ1EmmgVBHIW-1" value="&lt;span style=&quot;font-size: 14px&quot;&gt;HK-Means B cell profile.file&lt;/span&gt;" style="shape=note;whiteSpace=wrap;html=1;backgroundOutline=1;darkOpacity=0.05;rounded=1;shadow=1;glass=0;sketch=1;fontSize=17;" parent="1" vertex="1">
          <mxGeometry x="934.52" y="1180" width="97.25" height="130" as="geometry" />
        </mxCell>
        <mxCell id="5bEnz7MpU0Ya5RY6O6NQ-2" style="edgeStyle=orthogonalEdgeStyle;rounded=1;orthogonalLoop=1;jettySize=auto;html=1;entryX=1;entryY=0.5;entryDx=0;entryDy=0;strokeWidth=2;shadow=0;" parent="1" source="5bEnz7MpU0Ya5RY6O6NQ-1" target="TdoV821Zneaegla7UpCI-22" edge="1">
          <mxGeometry relative="1" as="geometry" />
        </mxCell>
        <mxCell id="5bEnz7MpU0Ya5RY6O6NQ-1" value="&lt;span style=&quot;font-size: 14px&quot;&gt;Sequence batch tracking calcium flux&lt;br&gt;.protocol&lt;/span&gt;" style="shape=note;whiteSpace=wrap;html=1;backgroundOutline=1;darkOpacity=0.05;rounded=1;shadow=1;glass=0;sketch=1;fontSize=17;" parent="1" vertex="1">
          <mxGeometry x="934.52" y="1689" width="97.25" height="130" as="geometry" />
        </mxCell>
        <mxCell id="5bEnz7MpU0Ya5RY6O6NQ-4" value="&lt;font style=&quot;font-size: 14px&quot;&gt;Condition_ measurement&lt;br&gt;.csv&lt;/font&gt;" style="shape=note;whiteSpace=wrap;html=1;backgroundOutline=1;darkOpacity=0.05;rounded=1;shadow=1;glass=0;sketch=1;fontSize=17;strokeColor=#82b366;fillColor=#d5e8d4;gradientColor=#ffffff;" parent="1" vertex="1">
          <mxGeometry x="562.7500000000001" y="2240" width="97.25" height="130" as="geometry" />
        </mxCell>
        <mxCell id="5bEnz7MpU0Ya5RY6O6NQ-5" style="edgeStyle=orthogonalEdgeStyle;rounded=1;orthogonalLoop=1;jettySize=auto;html=1;entryX=0.5;entryY=0;entryDx=0;entryDy=0;entryPerimeter=0;shadow=0;strokeWidth=2;" parent="1" edge="1">
          <mxGeometry relative="1" as="geometry">
            <Array as="points">
              <mxPoint x="690" y="2067" />
              <mxPoint x="690" y="2179" />
              <mxPoint x="611" y="2179" />
            </Array>
            <mxPoint x="675.23" y="2067" as="sourcePoint" />
            <mxPoint x="611.3750000000001" y="2239" as="targetPoint" />
          </mxGeometry>
        </mxCell>
        <mxCell id="Uxr_HARES1vF5yUQczm2-1" style="edgeStyle=orthogonalEdgeStyle;sketch=0;jumpStyle=arc;jumpSize=6;orthogonalLoop=1;jettySize=auto;html=1;entryX=1;entryY=0.5;entryDx=0;entryDy=0;shadow=0;fontSize=10;fontColor=#000000;startArrow=none;startFill=0;strokeWidth=2;labelBorderColor=#CC00CC;endArrow=classic;endFill=1;curved=1;rounded=1;strokeColor=#000000;fillColor=default;" parent="1" edge="1">
          <mxGeometry relative="1" as="geometry">
            <mxPoint x="937.52" y="169.99" as="sourcePoint" />
            <mxPoint x="680.5" y="169.99" as="targetPoint" />
            <Array as="points">
              <mxPoint x="823" y="169.99" />
              <mxPoint x="823" y="169.99" />
            </Array>
          </mxGeometry>
        </mxCell>
      </root>
    </mxGraphModel>
  </diagram>
</mxfile>
